<?xml version="1.0" encoding="UTF-8"?>
<svg xmlns="http://www.w3.org/2000/svg" xmlns:xlink="http://www.w3.org/1999/xlink" width="600" height="600" viewBox="0 0 600 600">
<defs>
<g>
<g id="glyph-0-0-89158d3f">
<path d="M 9.34375 -5.109375 C 9.34375 -1.9375 7.75 0 5.1875 0 C 5.1875 0 1.25 0 1.25 0 C 1.25 0 1.25 -10.203125 1.25 -10.203125 C 1.25 -10.203125 5.1875 -10.203125 5.1875 -10.203125 C 7.765625 -10.203125 9.34375 -8.28125 9.34375 -5.109375 Z M 8.03125 -5.09375 C 8.03125 -7.703125 6.96875 -9.0625 4.953125 -9.0625 C 4.953125 -9.0625 2.546875 -9.0625 2.546875 -9.0625 C 2.546875 -9.0625 2.546875 -1.140625 2.546875 -1.140625 C 2.546875 -1.140625 4.953125 -1.140625 4.953125 -1.140625 C 6.96875 -1.140625 8.03125 -2.515625 8.03125 -5.09375 Z M 8.03125 -5.09375 "/>
</g>
<g id="glyph-0-1-89158d3f">
<path d="M 2.140625 0 C 2.140625 0 0.984375 0 0.984375 0 C 0.984375 0 0.984375 -7.34375 0.984375 -7.34375 C 0.984375 -7.34375 2.140625 -7.34375 2.140625 -7.34375 C 2.140625 -7.34375 2.140625 0 2.140625 0 Z M 2.296875 -8.4375 C 2.296875 -8.4375 0.84375 -8.4375 0.84375 -8.4375 C 0.84375 -8.4375 0.84375 -9.890625 0.84375 -9.890625 C 0.84375 -9.890625 2.296875 -9.890625 2.296875 -9.890625 C 2.296875 -9.890625 2.296875 -8.4375 2.296875 -8.4375 Z M 2.296875 -8.4375 "/>
</g>
<g id="glyph-0-2-89158d3f">
<path d="M 6.421875 -2.0625 C 6.421875 -0.640625 5.25 0.203125 3.40625 0.203125 C 1.484375 0.203125 0.53125 -0.546875 0.46875 -2.234375 C 0.46875 -2.234375 1.703125 -2.234375 1.703125 -2.234375 C 1.859375 -1.125 2.453125 -0.875 3.5 -0.875 C 4.515625 -0.875 5.203125 -1.28125 5.203125 -1.953125 C 5.203125 -2.484375 4.890625 -2.734375 4.078125 -2.921875 C 4.078125 -2.921875 2.984375 -3.1875 2.984375 -3.1875 C 1.25 -3.609375 0.65625 -4.15625 0.65625 -5.3125 C 0.65625 -6.65625 1.765625 -7.546875 3.46875 -7.546875 C 5.171875 -7.546875 6.125 -6.734375 6.125 -5.296875 C 6.125 -5.296875 4.90625 -5.296875 4.90625 -5.296875 C 4.875 -6.0625 4.375 -6.46875 3.4375 -6.46875 C 2.484375 -6.46875 1.875 -6.03125 1.875 -5.359375 C 1.875 -4.84375 2.28125 -4.53125 3.234375 -4.3125 C 3.234375 -4.3125 4.359375 -4.046875 4.359375 -4.046875 C 5.8125 -3.703125 6.421875 -3.15625 6.421875 -2.0625 Z M 6.421875 -2.0625 "/>
</g>
<g id="glyph-0-3-89158d3f">
<path d="M 3.5625 0 C 3.15625 0.0625 2.890625 0.09375 2.609375 0.09375 C 1.6875 0.09375 1.1875 -0.328125 1.1875 -1.0625 C 1.1875 -1.0625 1.1875 -6.390625 1.1875 -6.390625 C 1.1875 -6.390625 0.203125 -6.390625 0.203125 -6.390625 C 0.203125 -6.390625 0.203125 -7.34375 0.203125 -7.34375 C 0.203125 -7.34375 1.1875 -7.34375 1.1875 -7.34375 C 1.1875 -7.34375 1.1875 -9.359375 1.1875 -9.359375 C 1.1875 -9.359375 2.359375 -9.359375 2.359375 -9.359375 C 2.359375 -9.359375 2.359375 -7.34375 2.359375 -7.34375 C 2.359375 -7.34375 3.5625 -7.34375 3.5625 -7.34375 C 3.5625 -7.34375 3.5625 -6.390625 3.5625 -6.390625 C 3.5625 -6.390625 2.359375 -6.390625 2.359375 -6.390625 C 2.359375 -6.390625 2.359375 -1.578125 2.359375 -1.578125 C 2.359375 -1.0625 2.484375 -0.921875 3 -0.921875 C 3.21875 -0.921875 3.40625 -0.9375 3.5625 -0.984375 C 3.5625 -0.984375 3.5625 0 3.5625 0 Z M 3.5625 0 "/>
</g>
<g id="glyph-0-4-89158d3f">
<path d="M 7.484375 -0.03125 C 7.109375 0.0625 6.9375 0.09375 6.6875 0.09375 C 6.125 0.09375 5.609375 -0.3125 5.484375 -0.875 C 4.84375 -0.1875 3.9375 0.203125 3 0.203125 C 1.515625 0.203125 0.59375 -0.578125 0.59375 -1.90625 C 0.59375 -2.796875 1.015625 -3.453125 1.875 -3.8125 C 2.328125 -3.984375 2.578125 -4.046875 4.234375 -4.25 C 5.15625 -4.375 5.453125 -4.578125 5.453125 -5.0625 C 5.453125 -5.0625 5.453125 -5.375 5.453125 -5.375 C 5.453125 -6.078125 4.859375 -6.46875 3.8125 -6.46875 C 2.71875 -6.46875 2.1875 -6.0625 2.09375 -5.171875 C 2.09375 -5.171875 0.90625 -5.171875 0.90625 -5.171875 C 0.984375 -6.859375 2.078125 -7.546875 3.84375 -7.546875 C 5.65625 -7.546875 6.609375 -6.84375 6.609375 -5.546875 C 6.609375 -5.546875 6.609375 -1.453125 6.609375 -1.453125 C 6.609375 -1.09375 6.828125 -0.875 7.234375 -0.875 C 7.3125 -0.875 7.359375 -0.875 7.484375 -0.90625 C 7.484375 -0.90625 7.484375 -0.03125 7.484375 -0.03125 Z M 5.453125 -2.53125 C 5.453125 -2.53125 5.453125 -3.625 5.453125 -3.625 C 5.046875 -3.4375 4.796875 -3.390625 3.5625 -3.21875 C 2.328125 -3.03125 1.8125 -2.703125 1.8125 -1.9375 C 1.8125 -1.140625 2.34375 -0.8125 3.25 -0.8125 C 4.375 -0.8125 5.453125 -1.484375 5.453125 -2.53125 Z M 5.859375 -8.125 C 5.859375 -8.125 4.96875 -8.125 4.96875 -8.125 C 4.96875 -8.125 3.84375 -9.46875 3.84375 -9.46875 C 3.84375 -9.46875 2.734375 -8.125 2.734375 -8.125 C 2.734375 -8.125 1.828125 -8.125 1.828125 -8.125 C 1.828125 -8.125 3.171875 -10.21875 3.171875 -10.21875 C 3.171875 -10.21875 4.515625 -10.21875 4.515625 -10.21875 C 4.515625 -10.21875 5.859375 -8.125 5.859375 -8.125 Z M 5.859375 -8.125 "/>
</g>
<g id="glyph-0-5-89158d3f">
<path d="M 6.8125 0 C 6.8125 0 5.65625 0 5.65625 0 C 5.65625 0 5.65625 -5.078125 5.65625 -5.078125 C 5.65625 -5.96875 5.0625 -6.53125 4.140625 -6.53125 C 2.953125 -6.53125 2.140625 -5.546875 2.140625 -4.046875 C 2.140625 -4.046875 2.140625 0 2.140625 0 C 2.140625 0 0.984375 0 0.984375 0 C 0.984375 0 0.984375 -7.34375 0.984375 -7.34375 C 0.984375 -7.34375 2.0625 -7.34375 2.0625 -7.34375 C 2.0625 -7.34375 2.0625 -6.109375 2.0625 -6.109375 C 2.703125 -7.125 3.40625 -7.546875 4.5 -7.546875 C 5.90625 -7.546875 6.8125 -6.765625 6.8125 -5.546875 C 6.8125 -5.546875 6.8125 0 6.8125 0 Z M 6.8125 0 "/>
</g>
<g id="glyph-0-6-89158d3f">
<path d="M 6.671875 -2.515625 C 6.53125 -0.84375 5.4375 0.203125 3.6875 0.203125 C 1.6875 0.203125 0.4375 -1.234375 0.4375 -3.59375 C 0.4375 -6.03125 1.71875 -7.546875 3.703125 -7.546875 C 5.328125 -7.546875 6.453125 -6.65625 6.59375 -4.875 C 6.59375 -4.875 5.421875 -4.875 5.421875 -4.875 C 5.28125 -5.890625 4.65625 -6.46875 3.6875 -6.46875 C 2.40625 -6.46875 1.65625 -5.4375 1.65625 -3.59375 C 1.65625 -1.859375 2.421875 -0.875 3.703125 -0.875 C 4.703125 -0.875 5.3125 -1.34375 5.5 -2.515625 C 5.5 -2.515625 6.671875 -2.515625 6.671875 -2.515625 Z M 6.671875 -2.515625 "/>
</g>
<g id="glyph-0-7-89158d3f">
<path d="M 7.484375 -0.03125 C 7.109375 0.0625 6.9375 0.09375 6.6875 0.09375 C 6.125 0.09375 5.609375 -0.3125 5.484375 -0.875 C 4.84375 -0.1875 3.9375 0.203125 3 0.203125 C 1.515625 0.203125 0.59375 -0.578125 0.59375 -1.90625 C 0.59375 -2.796875 1.015625 -3.453125 1.875 -3.8125 C 2.328125 -3.984375 2.578125 -4.046875 4.234375 -4.25 C 5.15625 -4.375 5.453125 -4.578125 5.453125 -5.0625 C 5.453125 -5.0625 5.453125 -5.375 5.453125 -5.375 C 5.453125 -6.078125 4.859375 -6.46875 3.8125 -6.46875 C 2.71875 -6.46875 2.1875 -6.0625 2.09375 -5.171875 C 2.09375 -5.171875 0.90625 -5.171875 0.90625 -5.171875 C 0.984375 -6.859375 2.078125 -7.546875 3.84375 -7.546875 C 5.65625 -7.546875 6.609375 -6.84375 6.609375 -5.546875 C 6.609375 -5.546875 6.609375 -1.453125 6.609375 -1.453125 C 6.609375 -1.09375 6.828125 -0.875 7.234375 -0.875 C 7.3125 -0.875 7.359375 -0.875 7.484375 -0.90625 C 7.484375 -0.90625 7.484375 -0.03125 7.484375 -0.03125 Z M 5.453125 -2.53125 C 5.453125 -2.53125 5.453125 -3.625 5.453125 -3.625 C 5.046875 -3.4375 4.796875 -3.390625 3.5625 -3.21875 C 2.328125 -3.03125 1.8125 -2.703125 1.8125 -1.9375 C 1.8125 -1.140625 2.34375 -0.8125 3.25 -0.8125 C 4.375 -0.8125 5.453125 -1.484375 5.453125 -2.53125 Z M 5.453125 -2.53125 "/>
</g>
<g id="glyph-0-8-89158d3f">
<path d="M 7.09375 -4.78125 C 7.09375 -1.515625 5.953125 0.203125 3.84375 0.203125 C 1.71875 0.203125 0.609375 -1.515625 0.609375 -4.859375 C 0.609375 -8.1875 1.703125 -9.921875 3.84375 -9.921875 C 6 -9.921875 7.09375 -8.21875 7.09375 -4.78125 Z M 5.84375 -4.890625 C 5.84375 -7.546875 5.1875 -8.828125 3.84375 -8.828125 C 2.515625 -8.828125 1.859375 -7.5625 1.859375 -4.84375 C 1.859375 -2.125 2.515625 -0.8125 3.828125 -0.8125 C 5.1875 -0.8125 5.84375 -2.078125 5.84375 -4.890625 Z M 5.84375 -4.890625 "/>
</g>
<g id="glyph-0-9-89158d3f">
<path d="M 4.859375 0 C 4.859375 0 3.625 0 3.625 0 C 3.625 0 3.625 -7.0625 3.625 -7.0625 C 3.625 -7.0625 1.421875 -7.0625 1.421875 -7.0625 C 1.421875 -7.0625 1.421875 -7.953125 1.421875 -7.953125 C 3.328125 -8.1875 3.609375 -8.40625 4.046875 -9.921875 C 4.046875 -9.921875 4.859375 -9.921875 4.859375 -9.921875 C 4.859375 -9.921875 4.859375 0 4.859375 0 Z M 4.859375 0 "/>
</g>
<g id="glyph-0-10-89158d3f">
<path d="M 7.15625 -7.015625 C 7.15625 -5.796875 6.4375 -4.765625 5.046875 -4.015625 C 5.046875 -4.015625 3.65625 -3.265625 3.65625 -3.265625 C 2.4375 -2.546875 1.984375 -2.03125 1.859375 -1.21875 C 1.859375 -1.21875 7.078125 -1.21875 7.078125 -1.21875 C 7.078125 -1.21875 7.078125 0 7.078125 0 C 7.078125 0 0.46875 0 0.46875 0 C 0.59375 -2.1875 1.1875 -3.125 3.265625 -4.296875 C 3.265625 -4.296875 4.546875 -5.03125 4.546875 -5.03125 C 5.4375 -5.53125 5.890625 -6.203125 5.890625 -6.984375 C 5.890625 -8.046875 5.046875 -8.84375 3.9375 -8.84375 C 2.71875 -8.84375 2.03125 -8.140625 1.9375 -6.484375 C 1.9375 -6.484375 0.703125 -6.484375 0.703125 -6.484375 C 0.765625 -8.890625 1.953125 -9.921875 3.96875 -9.921875 C 5.859375 -9.921875 7.15625 -8.6875 7.15625 -7.015625 Z M 7.15625 -7.015625 "/>
</g>
<g id="glyph-0-11-89158d3f">
<path d="M 7.078125 -2.890625 C 7.078125 -1.015625 5.765625 0.203125 3.71875 0.203125 C 1.6875 0.203125 0.609375 -0.78125 0.453125 -3 C 0.453125 -3 1.6875 -3 1.6875 -3 C 1.765625 -1.546875 2.421875 -0.875 3.765625 -0.875 C 5.046875 -0.875 5.828125 -1.625 5.828125 -2.875 C 5.828125 -3.96875 5.125 -4.625 3.765625 -4.625 C 3.765625 -4.625 3.09375 -4.625 3.09375 -4.625 C 3.09375 -4.625 3.09375 -5.65625 3.09375 -5.65625 C 5.0625 -5.65625 5.53125 -6.09375 5.53125 -7.15625 C 5.53125 -8.203125 4.875 -8.84375 3.78125 -8.84375 C 2.515625 -8.84375 1.921875 -8.1875 1.890625 -6.71875 C 1.890625 -6.71875 0.65625 -6.71875 0.65625 -6.71875 C 0.703125 -8.828125 1.765625 -9.921875 3.765625 -9.921875 C 5.65625 -9.921875 6.796875 -8.90625 6.796875 -7.203125 C 6.796875 -6.203125 6.328125 -5.5625 5.40625 -5.1875 C 6.59375 -4.78125 7.078125 -4.09375 7.078125 -2.890625 Z M 7.078125 -2.890625 "/>
</g>
<g id="glyph-0-12-89158d3f">
<path d="M 7.28125 -2.375 C 7.28125 -2.375 5.8125 -2.375 5.8125 -2.375 C 5.8125 -2.375 5.8125 0 5.8125 0 C 5.8125 0 4.578125 0 4.578125 0 C 4.578125 0 4.578125 -2.375 4.578125 -2.375 C 4.578125 -2.375 0.390625 -2.375 0.390625 -2.375 C 0.390625 -2.375 0.390625 -3.6875 0.390625 -3.6875 C 0.390625 -3.6875 4.90625 -9.921875 4.90625 -9.921875 C 4.90625 -9.921875 5.8125 -9.921875 5.8125 -9.921875 C 5.8125 -9.921875 5.8125 -3.484375 5.8125 -3.484375 C 5.8125 -3.484375 7.28125 -3.484375 7.28125 -3.484375 C 7.28125 -3.484375 7.28125 -2.375 7.28125 -2.375 Z M 4.578125 -3.484375 C 4.578125 -3.484375 4.578125 -7.828125 4.578125 -7.828125 C 4.578125 -7.828125 1.46875 -3.484375 1.46875 -3.484375 C 1.46875 -3.484375 4.578125 -3.484375 4.578125 -3.484375 Z M 4.578125 -3.484375 "/>
</g>
<g id="glyph-0-13-89158d3f">
<path d="M 7.1875 -3.296875 C 7.1875 -1.1875 5.78125 0.203125 3.78125 0.203125 C 2.015625 0.203125 0.890625 -0.578125 0.484375 -2.546875 C 0.484375 -2.546875 1.71875 -2.546875 1.71875 -2.546875 C 2.015625 -1.421875 2.671875 -0.875 3.75 -0.875 C 5.09375 -0.875 5.921875 -1.6875 5.921875 -3.125 C 5.921875 -4.59375 5.078125 -5.453125 3.75 -5.453125 C 2.984375 -5.453125 2.5 -5.203125 1.9375 -4.515625 C 1.9375 -4.515625 0.796875 -4.515625 0.796875 -4.515625 C 0.796875 -4.515625 1.546875 -9.71875 1.546875 -9.71875 C 1.546875 -9.71875 6.65625 -9.71875 6.65625 -9.71875 C 6.65625 -9.71875 6.65625 -8.5 6.65625 -8.5 C 6.65625 -8.5 2.53125 -8.5 2.53125 -8.5 C 2.53125 -8.5 2.140625 -5.9375 2.140625 -5.9375 C 2.71875 -6.359375 3.28125 -6.53125 3.96875 -6.53125 C 5.875 -6.53125 7.1875 -5.25 7.1875 -3.296875 Z M 7.1875 -3.296875 "/>
</g>
<g id="glyph-0-14-89158d3f">
<path d="M 7.1875 -3.078125 C 7.1875 -1.140625 5.828125 0.203125 3.9375 0.203125 C 1.671875 0.203125 0.609375 -1.421875 0.609375 -4.515625 C 0.609375 -7.984375 1.84375 -9.921875 4.15625 -9.921875 C 5.671875 -9.921875 6.734375 -8.953125 6.96875 -7.34375 C 6.96875 -7.34375 5.734375 -7.34375 5.734375 -7.34375 C 5.546875 -8.28125 4.9375 -8.828125 4.078125 -8.828125 C 2.65625 -8.828125 1.875 -7.484375 1.859375 -5.0625 C 2.390625 -5.796875 3.15625 -6.171875 4.140625 -6.171875 C 5.921875 -6.171875 7.1875 -4.921875 7.1875 -3.078125 Z M 5.921875 -2.984375 C 5.921875 -4.3125 5.1875 -5.078125 3.984375 -5.078125 C 2.765625 -5.078125 1.9375 -4.28125 1.9375 -3.046875 C 1.9375 -1.78125 2.796875 -0.875 3.953125 -0.875 C 5.078125 -0.875 5.921875 -1.734375 5.921875 -2.984375 Z M 5.921875 -2.984375 "/>
</g>
<g id="glyph-0-15-89158d3f">
<path d="M 8.109375 -9.0625 C 8.109375 -9.0625 2.5625 -9.0625 2.5625 -9.0625 C 2.5625 -9.0625 2.5625 -5.796875 2.5625 -5.796875 C 2.5625 -5.796875 7.4375 -5.796875 7.4375 -5.796875 C 7.4375 -5.796875 7.4375 -4.640625 7.4375 -4.640625 C 7.4375 -4.640625 2.5625 -4.640625 2.5625 -4.640625 C 2.5625 -4.640625 2.5625 0 2.5625 0 C 2.5625 0 1.265625 0 1.265625 0 C 1.265625 0 1.265625 -10.203125 1.265625 -10.203125 C 1.265625 -10.203125 8.109375 -10.203125 8.109375 -10.203125 C 8.109375 -10.203125 8.109375 -9.0625 8.109375 -9.0625 Z M 8.109375 -9.0625 "/>
</g>
<g id="glyph-0-16-89158d3f">
<path d="M 4.5 -6.3125 C 2.6875 -6.28125 2.140625 -5.453125 2.140625 -3.8125 C 2.140625 -3.8125 2.140625 0 2.140625 0 C 2.140625 0 0.984375 0 0.984375 0 C 0.984375 0 0.984375 -7.34375 0.984375 -7.34375 C 0.984375 -7.34375 2.046875 -7.34375 2.046875 -7.34375 C 2.046875 -7.34375 2.046875 -6 2.046875 -6 C 2.71875 -7.09375 3.296875 -7.546875 4.046875 -7.546875 C 4.203125 -7.546875 4.296875 -7.53125 4.5 -7.5 C 4.5 -7.5 4.5 -6.3125 4.5 -6.3125 Z M 4.5 -6.3125 "/>
</g>
<g id="glyph-0-17-89158d3f">
<path d="M 7.1875 -3.328125 C 7.1875 -3.328125 1.78125 -3.328125 1.78125 -3.328125 C 1.8125 -1.65625 2.71875 -0.875 3.9375 -0.875 C 4.875 -0.875 5.53125 -1.265625 5.859375 -2.21875 C 5.859375 -2.21875 7.03125 -2.21875 7.03125 -2.21875 C 6.734375 -0.734375 5.578125 0.203125 3.890625 0.203125 C 1.828125 0.203125 0.5625 -1.21875 0.5625 -3.625 C 0.5625 -6.03125 1.875 -7.546875 3.921875 -7.546875 C 5.296875 -7.546875 6.40625 -6.8125 6.890625 -5.609375 C 7.09375 -5.0625 7.1875 -4.390625 7.1875 -3.328125 Z M 5.9375 -4.375 C 5.9375 -5.515625 5.046875 -6.46875 3.90625 -6.46875 C 2.734375 -6.46875 1.90625 -5.59375 1.8125 -4.28125 C 1.8125 -4.28125 5.921875 -4.28125 5.921875 -4.28125 C 5.9375 -4.3125 5.9375 -4.375 5.9375 -4.375 Z M 5.9375 -4.375 "/>
</g>
<g id="glyph-0-18-89158d3f">
<path d="M 6.9375 3.046875 C 6.9375 3.046875 5.765625 3.046875 5.765625 3.046875 C 5.765625 3.046875 5.765625 -0.953125 5.765625 -0.953125 C 5.21875 -0.15625 4.515625 0.203125 3.5 0.203125 C 1.5625 0.203125 0.359375 -1.203125 0.359375 -3.578125 C 0.359375 -6.015625 1.625 -7.546875 3.5625 -7.546875 C 4.515625 -7.546875 5.34375 -7.125 5.890625 -6.359375 C 5.890625 -6.359375 5.890625 -7.34375 5.890625 -7.34375 C 5.890625 -7.34375 6.9375 -7.34375 6.9375 -7.34375 C 6.9375 -7.34375 6.9375 3.046875 6.9375 3.046875 Z M 5.765625 -3.625 C 5.765625 -5.328125 4.96875 -6.453125 3.71875 -6.453125 C 2.4375 -6.453125 1.578125 -5.359375 1.578125 -3.671875 C 1.578125 -1.953125 2.4375 -0.875 3.71875 -0.875 C 4.953125 -0.875 5.765625 -1.953125 5.765625 -3.625 Z M 5.765625 -3.625 "/>
</g>
<g id="glyph-0-19-89158d3f">
<path d="M 6.75 0 C 6.75 0 5.703125 0 5.703125 0 C 5.703125 0 5.703125 -1.140625 5.703125 -1.140625 C 5.015625 -0.171875 4.328125 0.203125 3.25 0.203125 C 1.8125 0.203125 0.90625 -0.578125 0.90625 -1.796875 C 0.90625 -1.796875 0.90625 -7.34375 0.90625 -7.34375 C 0.90625 -7.34375 2.078125 -7.34375 2.078125 -7.34375 C 2.078125 -7.34375 2.078125 -2.25 2.078125 -2.25 C 2.078125 -1.375 2.65625 -0.8125 3.578125 -0.8125 C 4.796875 -0.8125 5.59375 -1.796875 5.59375 -3.296875 C 5.59375 -3.296875 5.59375 -7.34375 5.59375 -7.34375 C 5.59375 -7.34375 6.75 -7.34375 6.75 -7.34375 C 6.75 -7.34375 6.75 0 6.75 0 Z M 6.75 0 "/>
</g>
<g id="glyph-0-20-89158d3f">
<path d="M 7.1875 -3.328125 C 7.1875 -3.328125 1.78125 -3.328125 1.78125 -3.328125 C 1.8125 -1.65625 2.71875 -0.875 3.9375 -0.875 C 4.875 -0.875 5.53125 -1.265625 5.859375 -2.21875 C 5.859375 -2.21875 7.03125 -2.21875 7.03125 -2.21875 C 6.734375 -0.734375 5.578125 0.203125 3.890625 0.203125 C 1.828125 0.203125 0.5625 -1.21875 0.5625 -3.625 C 0.5625 -6.03125 1.875 -7.546875 3.921875 -7.546875 C 5.296875 -7.546875 6.40625 -6.8125 6.890625 -5.609375 C 7.09375 -5.0625 7.1875 -4.390625 7.1875 -3.328125 Z M 5.9375 -4.375 C 5.9375 -5.515625 5.046875 -6.46875 3.90625 -6.46875 C 2.734375 -6.46875 1.90625 -5.59375 1.8125 -4.28125 C 1.8125 -4.28125 5.921875 -4.28125 5.921875 -4.28125 C 5.9375 -4.3125 5.9375 -4.375 5.9375 -4.375 Z M 5.921875 -8.125 C 5.921875 -8.125 5.046875 -8.125 5.046875 -8.125 C 5.046875 -8.125 3.90625 -9.46875 3.90625 -9.46875 C 3.90625 -9.46875 2.796875 -8.125 2.796875 -8.125 C 2.796875 -8.125 1.90625 -8.125 1.90625 -8.125 C 1.90625 -8.125 3.25 -10.21875 3.25 -10.21875 C 3.25 -10.21875 4.578125 -10.21875 4.578125 -10.21875 C 4.578125 -10.21875 5.921875 -8.125 5.921875 -8.125 Z M 5.921875 -8.125 "/>
</g>
<g id="glyph-0-21-89158d3f">
<path d="M 6.671875 -2.515625 C 6.546875 -0.96875 5.59375 0.046875 4.078125 0.203125 C 4.078125 0.203125 3.84375 0.75 3.84375 0.75 C 3.84375 0.75 4.171875 0.75 4.171875 0.75 C 4.875 0.75 5.28125 1.3125 5.28125 1.921875 C 5.28125 2.71875 4.625 3.21875 3.5625 3.21875 C 3.015625 3.21875 2.671875 3.125 1.8125 2.75 C 1.8125 2.75 2.09375 2.1875 2.09375 2.1875 C 2.09375 2.1875 2.21875 2.234375 2.21875 2.234375 C 2.875 2.5625 3.109375 2.640625 3.46875 2.640625 C 3.90625 2.640625 4.234375 2.375 4.234375 2.015625 C 4.234375 1.6875 3.984375 1.40625 3.578125 1.40625 C 3.421875 1.40625 3.328125 1.40625 3.15625 1.453125 C 3.15625 1.453125 2.90625 1.28125 2.90625 1.28125 C 2.90625 1.28125 3.390625 0.203125 3.390625 0.203125 C 1.5625 0.0625 0.4375 -1.359375 0.4375 -3.59375 C 0.4375 -6.03125 1.71875 -7.546875 3.703125 -7.546875 C 5.328125 -7.546875 6.453125 -6.65625 6.59375 -4.875 C 6.59375 -4.875 5.421875 -4.875 5.421875 -4.875 C 5.28125 -5.890625 4.65625 -6.46875 3.6875 -6.46875 C 2.40625 -6.46875 1.65625 -5.4375 1.65625 -3.59375 C 1.65625 -1.859375 2.421875 -0.875 3.703125 -0.875 C 4.703125 -0.875 5.3125 -1.34375 5.5 -2.515625 C 5.5 -2.515625 6.671875 -2.515625 6.671875 -2.515625 Z M 6.671875 -2.515625 "/>
</g>
<g id="glyph-0-22-89158d3f">
<path d="M 7.484375 -0.03125 C 7.109375 0.0625 6.9375 0.09375 6.6875 0.09375 C 6.125 0.09375 5.609375 -0.3125 5.484375 -0.875 C 4.84375 -0.1875 3.9375 0.203125 3 0.203125 C 1.515625 0.203125 0.59375 -0.578125 0.59375 -1.90625 C 0.59375 -2.796875 1.015625 -3.453125 1.875 -3.8125 C 2.328125 -3.984375 2.578125 -4.046875 4.234375 -4.25 C 5.15625 -4.375 5.453125 -4.578125 5.453125 -5.0625 C 5.453125 -5.0625 5.453125 -5.375 5.453125 -5.375 C 5.453125 -6.078125 4.859375 -6.46875 3.8125 -6.46875 C 2.71875 -6.46875 2.1875 -6.0625 2.09375 -5.171875 C 2.09375 -5.171875 0.90625 -5.171875 0.90625 -5.171875 C 0.984375 -6.859375 2.078125 -7.546875 3.84375 -7.546875 C 5.65625 -7.546875 6.609375 -6.84375 6.609375 -5.546875 C 6.609375 -5.546875 6.609375 -1.453125 6.609375 -1.453125 C 6.609375 -1.09375 6.828125 -0.875 7.234375 -0.875 C 7.3125 -0.875 7.359375 -0.875 7.484375 -0.90625 C 7.484375 -0.90625 7.484375 -0.03125 7.484375 -0.03125 Z M 5.453125 -2.53125 C 5.453125 -2.53125 5.453125 -3.625 5.453125 -3.625 C 5.046875 -3.4375 4.796875 -3.390625 3.5625 -3.21875 C 2.328125 -3.03125 1.8125 -2.703125 1.8125 -1.9375 C 1.8125 -1.140625 2.34375 -0.8125 3.25 -0.8125 C 4.375 -0.8125 5.453125 -1.484375 5.453125 -2.53125 Z M 5.984375 -9.890625 C 5.84375 -8.9375 5.421875 -8.4375 4.734375 -8.4375 C 4.46875 -8.4375 4.296875 -8.5 3.546875 -8.796875 C 3.203125 -8.921875 3.015625 -8.96875 2.859375 -8.96875 C 2.640625 -8.96875 2.484375 -8.78125 2.390625 -8.453125 C 2.390625 -8.453125 1.578125 -8.453125 1.578125 -8.453125 C 1.734375 -9.375 2.171875 -9.890625 2.78125 -9.890625 C 3.0625 -9.890625 3.171875 -9.875 3.765625 -9.625 C 4.109375 -9.484375 4.46875 -9.375 4.640625 -9.375 C 4.90625 -9.375 5.046875 -9.546875 5.171875 -9.890625 C 5.171875 -9.890625 5.984375 -9.890625 5.984375 -9.890625 Z M 5.984375 -9.890625 "/>
</g>
<g id="glyph-0-23-89158d3f">
<path d="M 7.140625 -3.609375 C 7.140625 -1.203125 5.875 0.203125 3.828125 0.203125 C 1.734375 0.203125 0.5 -1.203125 0.5 -3.671875 C 0.5 -6.125 1.75 -7.546875 3.8125 -7.546875 C 5.921875 -7.546875 7.140625 -6.140625 7.140625 -3.609375 Z M 5.921875 -3.625 C 5.921875 -5.453125 5.140625 -6.46875 3.828125 -6.46875 C 2.515625 -6.46875 1.71875 -5.4375 1.71875 -3.671875 C 1.71875 -1.890625 2.515625 -0.875 3.828125 -0.875 C 5.109375 -0.875 5.921875 -1.90625 5.921875 -3.625 Z M 5.921875 -3.625 "/>
</g>
<g id="glyph-0-24-89158d3f">
</g>
<g id="glyph-0-25-89158d3f">
<path d="M 8.6875 -2.796875 C 8.6875 -0.984375 7.296875 0.25 4.703125 0.25 C 2.296875 0.25 0.671875 -0.90625 0.671875 -3.3125 C 0.671875 -3.3125 1.90625 -3.3125 1.90625 -3.3125 C 1.90625 -1.859375 2.859375 -0.890625 4.78125 -0.890625 C 6.546875 -0.890625 7.390625 -1.546875 7.390625 -2.671875 C 7.390625 -3.46875 6.796875 -3.984375 5.515625 -4.328125 C 5.515625 -4.328125 2.984375 -5 2.984375 -5 C 1.640625 -5.34375 0.984375 -6.125 0.984375 -7.375 C 0.984375 -9.21875 2.359375 -10.453125 4.609375 -10.453125 C 6.953125 -10.453125 8.34375 -9.296875 8.34375 -7.296875 C 8.34375 -7.296875 7.109375 -7.296875 7.109375 -7.296875 C 7.109375 -8.625 6.1875 -9.359375 4.5625 -9.359375 C 3.1875 -9.359375 2.28125 -8.59375 2.28125 -7.5625 C 2.28125 -6.78125 2.734375 -6.375 3.96875 -6.046875 C 3.96875 -6.046875 6.53125 -5.359375 6.53125 -5.359375 C 7.90625 -4.984375 8.6875 -4.0625 8.6875 -2.796875 Z M 8.6875 -2.796875 "/>
</g>
<g id="glyph-0-26-89158d3f">
<path d="M 7.328125 -3.75 C 7.328125 -1.375 6.0625 0.203125 4.125 0.203125 C 3.109375 0.203125 2.359375 -0.203125 1.8125 -1.046875 C 1.8125 -1.046875 1.8125 0 1.8125 0 C 1.8125 0 0.75 0 0.75 0 C 0.75 0 0.75 -10.203125 0.75 -10.203125 C 0.75 -10.203125 1.921875 -10.203125 1.921875 -10.203125 C 1.921875 -10.203125 1.921875 -6.34375 1.921875 -6.34375 C 2.46875 -7.171875 3.171875 -7.546875 4.1875 -7.546875 C 6.125 -7.546875 7.328125 -6.125 7.328125 -3.75 Z M 6.109375 -3.6875 C 6.109375 -5.3125 5.265625 -6.453125 3.96875 -6.453125 C 2.734375 -6.515625 1.921875 -5.390625 1.921875 -3.671875 C 1.921875 -2 2.734375 -0.875 3.96875 -0.875 C 5.234375 -0.875 6.109375 -2.015625 6.109375 -3.6875 Z M 6.109375 -3.6875 "/>
</g>
<g id="glyph-0-27-89158d3f">
<path d="M 6.796875 -7.34375 C 6.796875 -7.34375 3.984375 0 3.984375 0 C 3.984375 0 2.71875 0 2.71875 0 C 2.71875 0 0.140625 -7.34375 0.140625 -7.34375 C 0.140625 -7.34375 1.453125 -7.34375 1.453125 -7.34375 C 1.453125 -7.34375 3.421875 -1.390625 3.421875 -1.390625 C 3.421875 -1.390625 5.484375 -7.34375 5.484375 -7.34375 C 5.484375 -7.34375 6.796875 -7.34375 6.796875 -7.34375 Z M 6.796875 -7.34375 "/>
</g>
<g id="glyph-1-0-89158d3f">
<path d="M -7.203125 -8.640625 C -5.515625 -8.640625 -4.328125 -7.46875 -4.328125 -5.78125 C -4.328125 -5.78125 -4.328125 -2.578125 -4.328125 -2.578125 C -4.328125 -2.578125 0 -2.578125 0 -2.578125 C 0 -2.578125 0 -1.28125 0 -1.28125 C 0 -1.28125 -10.203125 -1.28125 -10.203125 -1.28125 C -10.203125 -1.28125 -10.203125 -5.484375 -10.203125 -5.484375 C -10.203125 -7.5 -9.125 -8.640625 -7.203125 -8.640625 Z M -7.265625 -7.28125 C -8.390625 -7.28125 -9.0625 -6.53125 -9.0625 -5.296875 C -9.0625 -5.296875 -9.0625 -2.578125 -9.0625 -2.578125 C -9.0625 -2.578125 -5.46875 -2.578125 -5.46875 -2.578125 C -5.46875 -2.578125 -5.46875 -5.296875 -5.46875 -5.296875 C -5.46875 -6.53125 -6.140625 -7.28125 -7.265625 -7.28125 Z M -7.265625 -7.28125 "/>
</g>
<g id="glyph-1-1-89158d3f">
<path d="M -2.515625 -6.671875 C -0.84375 -6.53125 0.203125 -5.4375 0.203125 -3.6875 C 0.203125 -1.6875 -1.234375 -0.4375 -3.59375 -0.4375 C -6.03125 -0.4375 -7.546875 -1.71875 -7.546875 -3.703125 C -7.546875 -5.328125 -6.65625 -6.453125 -4.875 -6.59375 C -4.875 -6.59375 -4.875 -5.421875 -4.875 -5.421875 C -5.890625 -5.28125 -6.46875 -4.65625 -6.46875 -3.6875 C -6.46875 -2.40625 -5.4375 -1.65625 -3.59375 -1.65625 C -1.859375 -1.65625 -0.875 -2.421875 -0.875 -3.703125 C -0.875 -4.703125 -1.34375 -5.3125 -2.515625 -5.5 C -2.515625 -5.5 -2.515625 -6.671875 -2.515625 -6.671875 Z M -2.515625 -6.671875 "/>
</g>
<g id="glyph-1-2-89158d3f">
<path d="M 0 -6.8125 C 0 -6.8125 0 -5.65625 0 -5.65625 C 0 -5.65625 -5.078125 -5.65625 -5.078125 -5.65625 C -5.96875 -5.65625 -6.53125 -5.0625 -6.53125 -4.140625 C -6.53125 -2.953125 -5.546875 -2.140625 -4.046875 -2.140625 C -4.046875 -2.140625 0 -2.140625 0 -2.140625 C 0 -2.140625 0 -0.984375 0 -0.984375 C 0 -0.984375 -7.34375 -0.984375 -7.34375 -0.984375 C -7.34375 -0.984375 -7.34375 -2.0625 -7.34375 -2.0625 C -7.34375 -2.0625 -6.109375 -2.0625 -6.109375 -2.0625 C -7.125 -2.703125 -7.546875 -3.40625 -7.546875 -4.5 C -7.546875 -5.90625 -6.765625 -6.8125 -5.546875 -6.8125 C -5.546875 -6.8125 0 -6.8125 0 -6.8125 Z M 0 -6.8125 "/>
</g>
<g id="glyph-1-3-89158d3f">
<path d="M -3.328125 -7.1875 C -3.328125 -7.1875 -3.328125 -1.78125 -3.328125 -1.78125 C -1.65625 -1.8125 -0.875 -2.71875 -0.875 -3.9375 C -0.875 -4.875 -1.265625 -5.53125 -2.21875 -5.859375 C -2.21875 -5.859375 -2.21875 -7.03125 -2.21875 -7.03125 C -0.734375 -6.734375 0.203125 -5.578125 0.203125 -3.890625 C 0.203125 -1.828125 -1.21875 -0.5625 -3.625 -0.5625 C -6.03125 -0.5625 -7.546875 -1.875 -7.546875 -3.921875 C -7.546875 -5.296875 -6.8125 -6.40625 -5.609375 -6.890625 C -5.0625 -7.09375 -4.390625 -7.1875 -3.328125 -7.1875 Z M -4.375 -5.9375 C -5.515625 -5.9375 -6.46875 -5.046875 -6.46875 -3.90625 C -6.46875 -2.734375 -5.59375 -1.90625 -4.28125 -1.8125 C -4.28125 -1.8125 -4.28125 -5.921875 -4.28125 -5.921875 C -4.3125 -5.9375 -4.375 -5.9375 -4.375 -5.9375 Z M -4.375 -5.9375 "/>
</g>
<g id="glyph-1-4-89158d3f">
<path d="M 2.96875 -4.078125 C 2.96875 -4.078125 2.96875 -3.296875 2.96875 -3.296875 C 1.140625 -1.90625 -1.40625 -1.015625 -3.625 -1.015625 C -5.828125 -1.015625 -8.375 -1.90625 -10.203125 -3.296875 C -10.203125 -3.296875 -10.203125 -4.078125 -10.203125 -4.078125 C -8.21875 -2.84375 -5.859375 -2.15625 -3.625 -2.15625 C -1.390625 -2.15625 0.96875 -2.84375 2.96875 -4.078125 Z M 2.96875 -4.078125 "/>
</g>
<g id="glyph-1-5-89158d3f">
<path d="M -3.609375 -3.578125 C -1.40625 -3.578125 1.140625 -2.703125 2.96875 -1.296875 C 2.96875 -1.296875 2.96875 -0.53125 2.96875 -0.53125 C 0.984375 -1.765625 -1.390625 -2.453125 -3.609375 -2.453125 C -5.859375 -2.453125 -8.203125 -1.765625 -10.203125 -0.53125 C -10.203125 -0.53125 -10.203125 -1.296875 -10.203125 -1.296875 C -8.375 -2.703125 -5.828125 -3.578125 -3.609375 -3.578125 Z M -3.609375 -3.578125 "/>
</g>
<g id="glyph-2-0-89158d3f">
<path d="M -3.609375 -7.140625 C -1.203125 -7.140625 0.203125 -5.875 0.203125 -3.828125 C 0.203125 -1.734375 -1.203125 -0.5 -3.671875 -0.5 C -6.125 -0.5 -7.546875 -1.75 -7.546875 -3.8125 C -7.546875 -5.921875 -6.140625 -7.140625 -3.609375 -7.140625 Z M -3.625 -5.921875 C -5.453125 -5.921875 -6.46875 -5.140625 -6.46875 -3.828125 C -6.46875 -2.515625 -5.4375 -1.71875 -3.671875 -1.71875 C -1.890625 -1.71875 -0.875 -2.515625 -0.875 -3.828125 C -0.875 -5.109375 -1.90625 -5.921875 -3.625 -5.921875 Z M -3.625 -5.921875 "/>
</g>
<g id="glyph-3-0-89158d3f">
<path d="M -6.3125 -4.5 C -6.28125 -2.6875 -5.453125 -2.140625 -3.8125 -2.140625 C -3.8125 -2.140625 0 -2.140625 0 -2.140625 C 0 -2.140625 0 -0.984375 0 -0.984375 C 0 -0.984375 -7.34375 -0.984375 -7.34375 -0.984375 C -7.34375 -0.984375 -7.34375 -2.046875 -7.34375 -2.046875 C -7.34375 -2.046875 -6 -2.046875 -6 -2.046875 C -7.09375 -2.71875 -7.546875 -3.296875 -7.546875 -4.046875 C -7.546875 -4.203125 -7.53125 -4.296875 -7.5 -4.5 C -7.5 -4.5 -6.3125 -4.5 -6.3125 -4.5 Z M -6.3125 -4.5 "/>
</g>
<g id="glyph-3-1-89158d3f">
</g>
<g id="glyph-4-0-89158d3f">
<path d="M -3.328125 -7.1875 C -3.328125 -7.1875 -3.328125 -1.78125 -3.328125 -1.78125 C -1.65625 -1.8125 -0.875 -2.71875 -0.875 -3.9375 C -0.875 -4.875 -1.265625 -5.53125 -2.21875 -5.859375 C -2.21875 -5.859375 -2.21875 -7.03125 -2.21875 -7.03125 C -0.734375 -6.734375 0.203125 -5.578125 0.203125 -3.890625 C 0.203125 -1.828125 -1.21875 -0.5625 -3.625 -0.5625 C -6.03125 -0.5625 -7.546875 -1.875 -7.546875 -3.921875 C -7.546875 -5.296875 -6.8125 -6.40625 -5.609375 -6.890625 C -5.0625 -7.09375 -4.390625 -7.1875 -3.328125 -7.1875 Z M -4.375 -5.9375 C -5.515625 -5.9375 -6.46875 -5.046875 -6.46875 -3.90625 C -6.46875 -2.734375 -5.59375 -1.90625 -4.28125 -1.8125 C -4.28125 -1.8125 -4.28125 -5.921875 -4.28125 -5.921875 C -4.3125 -5.9375 -4.375 -5.9375 -4.375 -5.9375 Z M -4.375 -5.9375 "/>
</g>
<g id="glyph-4-1-89158d3f">
<path d="M -1.203125 -6.84375 C 2.03125 -6.84375 3.046875 -5.859375 3.046875 -3.5625 C 3.046875 -1.84375 2.21875 -0.765625 0.84375 -0.640625 C 0.84375 -0.640625 0.84375 -1.828125 0.84375 -1.828125 C 1.734375 -1.96875 2.078125 -2.6875 2.078125 -3.609375 C 2.078125 -4.96875 1.328125 -5.765625 -0.609375 -5.765625 C -0.609375 -5.765625 -1.109375 -5.765625 -1.109375 -5.765625 C -0.1875 -5 0.203125 -4.359375 0.203125 -3.4375 C 0.203125 -1.703125 -1.28125 -0.40625 -3.59375 -0.40625 C -5.984375 -0.40625 -7.546875 -1.671875 -7.546875 -3.53125 C -7.546875 -4.46875 -7.140625 -5.1875 -6.265625 -5.765625 C -6.265625 -5.765625 -7.34375 -5.765625 -7.34375 -5.765625 C -7.34375 -5.765625 -7.34375 -6.84375 -7.34375 -6.84375 C -7.34375 -6.84375 -1.203125 -6.84375 -1.203125 -6.84375 Z M -3.625 -5.65625 C -5.40625 -5.65625 -6.46875 -4.90625 -6.46875 -3.65625 C -6.46875 -2.40625 -5.4375 -1.625 -3.671875 -1.625 C -1.890625 -1.625 -0.875 -2.390625 -0.875 -3.671875 C -0.875 -4.90625 -1.875 -5.65625 -3.625 -5.65625 Z M -3.625 -5.65625 "/>
</g>
<g id="glyph-5-0-89158d3f">
<path d="M 0 -3.5625 C 0.0625 -3.15625 0.09375 -2.890625 0.09375 -2.609375 C 0.09375 -1.6875 -0.328125 -1.1875 -1.0625 -1.1875 C -1.0625 -1.1875 -6.390625 -1.1875 -6.390625 -1.1875 C -6.390625 -1.1875 -6.390625 -0.203125 -6.390625 -0.203125 C -6.390625 -0.203125 -7.34375 -0.203125 -7.34375 -0.203125 C -7.34375 -0.203125 -7.34375 -1.1875 -7.34375 -1.1875 C -7.34375 -1.1875 -9.359375 -1.1875 -9.359375 -1.1875 C -9.359375 -1.1875 -9.359375 -2.359375 -9.359375 -2.359375 C -9.359375 -2.359375 -7.34375 -2.359375 -7.34375 -2.359375 C -7.34375 -2.359375 -7.34375 -3.5625 -7.34375 -3.5625 C -7.34375 -3.5625 -6.390625 -3.5625 -6.390625 -3.5625 C -6.390625 -3.5625 -6.390625 -2.359375 -6.390625 -2.359375 C -6.390625 -2.359375 -1.578125 -2.359375 -1.578125 -2.359375 C -1.0625 -2.359375 -0.921875 -2.484375 -0.921875 -3 C -0.921875 -3.21875 -0.9375 -3.40625 -0.984375 -3.5625 C -0.984375 -3.5625 0 -3.5625 0 -3.5625 Z M 0 -3.5625 "/>
</g>
<g id="glyph-6-0-89158d3f">
<path d="M -0.03125 -7.484375 C 0.0625 -7.109375 0.09375 -6.9375 0.09375 -6.6875 C 0.09375 -6.125 -0.3125 -5.609375 -0.875 -5.484375 C -0.1875 -4.84375 0.203125 -3.9375 0.203125 -3 C 0.203125 -1.515625 -0.578125 -0.59375 -1.90625 -0.59375 C -2.796875 -0.59375 -3.453125 -1.015625 -3.8125 -1.875 C -3.984375 -2.328125 -4.046875 -2.578125 -4.25 -4.234375 C -4.375 -5.15625 -4.578125 -5.453125 -5.0625 -5.453125 C -5.0625 -5.453125 -5.375 -5.453125 -5.375 -5.453125 C -6.078125 -5.453125 -6.46875 -4.859375 -6.46875 -3.8125 C -6.46875 -2.71875 -6.0625 -2.1875 -5.171875 -2.09375 C -5.171875 -2.09375 -5.171875 -0.90625 -5.171875 -0.90625 C -6.859375 -0.984375 -7.546875 -2.078125 -7.546875 -3.84375 C -7.546875 -5.65625 -6.84375 -6.609375 -5.546875 -6.609375 C -5.546875 -6.609375 -1.453125 -6.609375 -1.453125 -6.609375 C -1.09375 -6.609375 -0.875 -6.828125 -0.875 -7.234375 C -0.875 -7.3125 -0.875 -7.359375 -0.90625 -7.484375 C -0.90625 -7.484375 -0.03125 -7.484375 -0.03125 -7.484375 Z M -2.53125 -5.453125 C -2.53125 -5.453125 -3.625 -5.453125 -3.625 -5.453125 C -3.4375 -5.046875 -3.390625 -4.796875 -3.21875 -3.5625 C -3.03125 -2.328125 -2.703125 -1.8125 -1.9375 -1.8125 C -1.140625 -1.8125 -0.8125 -2.34375 -0.8125 -3.25 C -0.8125 -4.375 -1.484375 -5.453125 -2.53125 -5.453125 Z M -2.53125 -5.453125 "/>
</g>
<g id="glyph-6-1-89158d3f">
<path d="M -4.78125 -7.09375 C -1.515625 -7.09375 0.203125 -5.953125 0.203125 -3.84375 C 0.203125 -1.71875 -1.515625 -0.609375 -4.859375 -0.609375 C -8.1875 -0.609375 -9.921875 -1.703125 -9.921875 -3.84375 C -9.921875 -6 -8.21875 -7.09375 -4.78125 -7.09375 Z M -4.890625 -5.84375 C -7.546875 -5.84375 -8.828125 -5.1875 -8.828125 -3.84375 C -8.828125 -2.515625 -7.5625 -1.859375 -4.84375 -1.859375 C -2.125 -1.859375 -0.8125 -2.515625 -0.8125 -3.828125 C -0.8125 -5.1875 -2.078125 -5.84375 -4.890625 -5.84375 Z M -4.890625 -5.84375 "/>
</g>
<g id="glyph-6-2-89158d3f">
<path d="M -7.171875 -5.1875 C -5.875 -5.1875 -4.796875 -4.109375 -4.796875 -2.796875 C -4.796875 -1.484375 -5.875 -0.40625 -7.203125 -0.40625 C -8.515625 -0.40625 -9.59375 -1.484375 -9.59375 -2.78125 C -9.59375 -4.125 -8.53125 -5.1875 -7.171875 -5.1875 Z M -7.1875 -4.21875 C -7.984375 -4.21875 -8.609375 -3.578125 -8.609375 -2.78125 C -8.609375 -2.015625 -7.984375 -1.375 -7.203125 -1.375 C -6.421875 -1.375 -5.78125 -2.015625 -5.78125 -2.796875 C -5.78125 -3.5625 -6.40625 -4.21875 -7.1875 -4.21875 Z M -9.921875 -9.453125 C -9.921875 -9.453125 0.28125 -3.921875 0.28125 -3.921875 C 0.28125 -3.921875 0.28125 -3 0.28125 -3 C 0.28125 -3 -9.921875 -8.53125 -9.921875 -8.53125 C -9.921875 -8.53125 -9.921875 -9.453125 -9.921875 -9.453125 Z M -2.09375 -12.03125 C -0.8125 -12.03125 0.265625 -10.9375 0.265625 -9.640625 C 0.265625 -8.328125 -0.8125 -7.25 -2.125 -7.25 C -3.4375 -7.25 -4.515625 -8.328125 -4.515625 -9.625 C -4.515625 -10.96875 -3.4375 -12.03125 -2.09375 -12.03125 Z M -2.09375 -11.0625 C -2.890625 -11.0625 -3.53125 -10.4375 -3.53125 -9.625 C -3.53125 -8.859375 -2.890625 -8.21875 -2.125 -8.21875 C -1.34375 -8.21875 -0.71875 -8.859375 -0.71875 -9.640625 C -0.71875 -10.421875 -1.34375 -11.0625 -2.09375 -11.0625 Z M -2.09375 -11.0625 "/>
</g>
<g id="glyph-7-0-89158d3f">
<path d="M 0 -10.640625 C 0 -10.640625 0 -9.484375 0 -9.484375 C 0 -9.484375 -5.046875 -9.484375 -5.046875 -9.484375 C -5.984375 -9.484375 -6.53125 -8.984375 -6.53125 -8.140625 C -6.53125 -7.1875 -5.671875 -6.390625 -4.609375 -6.390625 C -4.609375 -6.390625 0 -6.390625 0 -6.390625 C 0 -6.390625 0 -5.234375 0 -5.234375 C 0 -5.234375 -5.046875 -5.234375 -5.046875 -5.234375 C -5.984375 -5.234375 -6.53125 -4.75 -6.53125 -3.875 C -6.53125 -2.921875 -5.671875 -2.15625 -4.609375 -2.15625 C -4.609375 -2.15625 0 -2.15625 0 -2.15625 C 0 -2.15625 0 -1 0 -1 C 0 -1 -7.34375 -1 -7.34375 -1 C -7.34375 -1 -7.34375 -2.0625 -7.34375 -2.0625 C -7.34375 -2.0625 -6.296875 -2.0625 -6.296875 -2.0625 C -7.1875 -2.6875 -7.546875 -3.328125 -7.546875 -4.3125 C -7.546875 -5.265625 -7.203125 -5.859375 -6.421875 -6.28125 C -7.25 -6.96875 -7.546875 -7.5625 -7.546875 -8.546875 C -7.546875 -9.90625 -6.8125 -10.640625 -5.5 -10.640625 C -5.5 -10.640625 0 -10.640625 0 -10.640625 Z M 0 -10.640625 "/>
</g>
<g id="glyph-8-0-89158d3f">
<path d="M 0 -4.859375 C 0 -4.859375 0 -3.625 0 -3.625 C 0 -3.625 -7.0625 -3.625 -7.0625 -3.625 C -7.0625 -3.625 -7.0625 -1.421875 -7.0625 -1.421875 C -7.0625 -1.421875 -7.953125 -1.421875 -7.953125 -1.421875 C -8.1875 -3.328125 -8.40625 -3.609375 -9.921875 -4.046875 C -9.921875 -4.046875 -9.921875 -4.859375 -9.921875 -4.859375 C -9.921875 -4.859375 0 -4.859375 0 -4.859375 Z M 0 -4.859375 "/>
</g>
<g id="glyph-9-0-89158d3f">
<path d="M -4.78125 -7.09375 C -1.515625 -7.09375 0.203125 -5.953125 0.203125 -3.84375 C 0.203125 -1.71875 -1.515625 -0.609375 -4.859375 -0.609375 C -8.1875 -0.609375 -9.921875 -1.703125 -9.921875 -3.84375 C -9.921875 -6 -8.21875 -7.09375 -4.78125 -7.09375 Z M -4.890625 -5.84375 C -7.546875 -5.84375 -8.828125 -5.1875 -8.828125 -3.84375 C -8.828125 -2.515625 -7.5625 -1.859375 -4.84375 -1.859375 C -2.125 -1.859375 -0.8125 -2.515625 -0.8125 -3.828125 C -0.8125 -5.1875 -2.078125 -5.84375 -4.890625 -5.84375 Z M -4.890625 -5.84375 "/>
</g>
<g id="glyph-10-0-89158d3f">
<path d="M 4.765625 -2 C 4.765625 -2 0.625 -2 0.625 -2 C 0.625 -2 0.625 -2.625 0.625 -2.625 C 0.625 -2.625 4.765625 -2.625 4.765625 -2.625 C 4.765625 -2.625 4.765625 -2 4.765625 -2 Z M 4.765625 -2 "/>
</g>
<g id="glyph-11-0-89158d3f">
<path d="M 4.796875 -1.5625 C 4.796875 -1.5625 3.828125 -1.5625 3.828125 -1.5625 C 3.828125 -1.5625 3.828125 0 3.828125 0 C 3.828125 0 3.015625 0 3.015625 0 C 3.015625 0 3.015625 -1.5625 3.015625 -1.5625 C 3.015625 -1.5625 0.265625 -1.5625 0.265625 -1.5625 C 0.265625 -1.5625 0.265625 -2.421875 0.265625 -2.421875 C 0.265625 -2.421875 3.234375 -6.546875 3.234375 -6.546875 C 3.234375 -6.546875 3.828125 -6.546875 3.828125 -6.546875 C 3.828125 -6.546875 3.828125 -2.296875 3.828125 -2.296875 C 3.828125 -2.296875 4.796875 -2.296875 4.796875 -2.296875 C 4.796875 -2.296875 4.796875 -1.5625 4.796875 -1.5625 Z M 3.015625 -2.296875 C 3.015625 -2.296875 3.015625 -5.15625 3.015625 -5.15625 C 3.015625 -5.15625 0.96875 -2.296875 0.96875 -2.296875 C 0.96875 -2.296875 3.015625 -2.296875 3.015625 -2.296875 Z M 3.015625 -2.296875 "/>
</g>
<g id="glyph-11-1-89158d3f">
<path d="M 4.671875 -1.90625 C 4.671875 -0.671875 3.796875 0.140625 2.453125 0.140625 C 1.125 0.140625 0.390625 -0.515625 0.296875 -1.96875 C 0.296875 -1.96875 1.109375 -1.96875 1.109375 -1.96875 C 1.15625 -1.03125 1.59375 -0.578125 2.484375 -0.578125 C 3.328125 -0.578125 3.84375 -1.078125 3.84375 -1.890625 C 3.84375 -2.625 3.375 -3.046875 2.484375 -3.046875 C 2.484375 -3.046875 2.046875 -3.046875 2.046875 -3.046875 C 2.046875 -3.046875 2.046875 -3.734375 2.046875 -3.734375 C 3.34375 -3.734375 3.640625 -4.015625 3.640625 -4.71875 C 3.640625 -5.40625 3.21875 -5.84375 2.5 -5.84375 C 1.65625 -5.84375 1.265625 -5.40625 1.25 -4.4375 C 1.25 -4.4375 0.4375 -4.4375 0.4375 -4.4375 C 0.46875 -5.828125 1.15625 -6.546875 2.484375 -6.546875 C 3.734375 -6.546875 4.484375 -5.875 4.484375 -4.75 C 4.484375 -4.09375 4.171875 -3.671875 3.5625 -3.421875 C 4.34375 -3.15625 4.671875 -2.703125 4.671875 -1.90625 Z M 4.671875 -1.90625 "/>
</g>
<g id="glyph-11-2-89158d3f">
<path d="M 4.71875 -4.625 C 4.71875 -3.828125 4.25 -3.140625 3.328125 -2.65625 C 3.328125 -2.65625 2.40625 -2.15625 2.40625 -2.15625 C 1.609375 -1.6875 1.3125 -1.34375 1.234375 -0.796875 C 1.234375 -0.796875 4.671875 -0.796875 4.671875 -0.796875 C 4.671875 -0.796875 4.671875 0 4.671875 0 C 4.671875 0 0.3125 0 0.3125 0 C 0.390625 -1.4375 0.78125 -2.0625 2.15625 -2.828125 C 2.15625 -2.828125 3 -3.3125 3 -3.3125 C 3.578125 -3.640625 3.890625 -4.09375 3.890625 -4.609375 C 3.890625 -5.3125 3.328125 -5.84375 2.59375 -5.84375 C 1.796875 -5.84375 1.34375 -5.375 1.28125 -4.28125 C 1.28125 -4.28125 0.46875 -4.28125 0.46875 -4.28125 C 0.515625 -5.859375 1.28125 -6.546875 2.625 -6.546875 C 3.859375 -6.546875 4.71875 -5.734375 4.71875 -4.625 Z M 4.71875 -4.625 "/>
</g>
<g id="glyph-11-3-89158d3f">
<path d="M 3.203125 0 C 3.203125 0 2.390625 0 2.390625 0 C 2.390625 0 2.390625 -4.65625 2.390625 -4.65625 C 2.390625 -4.65625 0.9375 -4.65625 0.9375 -4.65625 C 0.9375 -4.65625 0.9375 -5.25 0.9375 -5.25 C 2.203125 -5.40625 2.375 -5.546875 2.671875 -6.546875 C 2.671875 -6.546875 3.203125 -6.546875 3.203125 -6.546875 C 3.203125 -6.546875 3.203125 0 3.203125 0 Z M 3.203125 0 "/>
</g>
<g id="glyph-11-4-89158d3f">
<path d="M 4.6875 -3.15625 C 4.6875 -1 3.921875 0.140625 2.546875 0.140625 C 1.140625 0.140625 0.390625 -1 0.390625 -3.203125 C 0.390625 -5.40625 1.125 -6.546875 2.546875 -6.546875 C 3.96875 -6.546875 4.6875 -5.421875 4.6875 -3.15625 Z M 3.84375 -3.21875 C 3.84375 -4.984375 3.421875 -5.828125 2.546875 -5.828125 C 1.65625 -5.828125 1.234375 -4.984375 1.234375 -3.1875 C 1.234375 -1.40625 1.65625 -0.53125 2.515625 -0.53125 C 3.421875 -0.53125 3.84375 -1.359375 3.84375 -3.21875 Z M 3.84375 -3.21875 "/>
</g>
<g id="glyph-12-0-89158d3f">
<path d="M 4.71875 -4.625 C 4.71875 -3.828125 4.25 -3.140625 3.328125 -2.65625 C 3.328125 -2.65625 2.40625 -2.15625 2.40625 -2.15625 C 1.609375 -1.6875 1.3125 -1.34375 1.234375 -0.796875 C 1.234375 -0.796875 4.671875 -0.796875 4.671875 -0.796875 C 4.671875 -0.796875 4.671875 0 4.671875 0 C 4.671875 0 0.3125 0 0.3125 0 C 0.390625 -1.4375 0.78125 -2.0625 2.15625 -2.828125 C 2.15625 -2.828125 3 -3.3125 3 -3.3125 C 3.578125 -3.640625 3.890625 -4.09375 3.890625 -4.609375 C 3.890625 -5.3125 3.328125 -5.84375 2.59375 -5.84375 C 1.796875 -5.84375 1.34375 -5.375 1.28125 -4.28125 C 1.28125 -4.28125 0.46875 -4.28125 0.46875 -4.28125 C 0.515625 -5.859375 1.28125 -6.546875 2.625 -6.546875 C 3.859375 -6.546875 4.71875 -5.734375 4.71875 -4.625 Z M 4.71875 -4.625 "/>
</g>
</g>
</defs>
<rect x="-60" y="-60" width="720" height="720" fill="rgb(100%, 100%, 100%)" fill-opacity="1"/>
<path fill-rule="nonzero" fill="rgb(100%, 100%, 100%)" fill-opacity="1" d="M 73 541 L 584 541 L 584 16 L 73 16 Z M 73 541 "/>
<path fill="none" stroke-width="1" stroke-linecap="butt" stroke-linejoin="miter" stroke="rgb(0%, 0%, 0%)" stroke-opacity="0.12" stroke-miterlimit="1.154701" d="M 91.644531 541 L 91.644531 16 "/>
<path fill="none" stroke-width="1" stroke-linecap="butt" stroke-linejoin="miter" stroke="rgb(0%, 0%, 0%)" stroke-opacity="0.12" stroke-miterlimit="1.154701" d="M 168.046875 541 L 168.046875 16 "/>
<path fill="none" stroke-width="1" stroke-linecap="butt" stroke-linejoin="miter" stroke="rgb(0%, 0%, 0%)" stroke-opacity="0.12" stroke-miterlimit="1.154701" d="M 244.453125 541 L 244.453125 16 "/>
<path fill="none" stroke-width="1" stroke-linecap="butt" stroke-linejoin="miter" stroke="rgb(0%, 0%, 0%)" stroke-opacity="0.12" stroke-miterlimit="1.154701" d="M 320.859375 541 L 320.859375 16 "/>
<path fill="none" stroke-width="1" stroke-linecap="butt" stroke-linejoin="miter" stroke="rgb(0%, 0%, 0%)" stroke-opacity="0.12" stroke-miterlimit="1.154701" d="M 397.265625 541 L 397.265625 16 "/>
<path fill="none" stroke-width="1" stroke-linecap="butt" stroke-linejoin="miter" stroke="rgb(0%, 0%, 0%)" stroke-opacity="0.12" stroke-miterlimit="1.154701" d="M 473.671875 541 L 473.671875 16 "/>
<path fill="none" stroke-width="1" stroke-linecap="butt" stroke-linejoin="miter" stroke="rgb(0%, 0%, 0%)" stroke-opacity="0.12" stroke-miterlimit="1.154701" d="M 550.074219 541 L 550.074219 16 "/>
<path fill="none" stroke-width="1" stroke-linecap="butt" stroke-linejoin="miter" stroke="rgb(0%, 0%, 0%)" stroke-opacity="0.12" stroke-miterlimit="1.154701" d="M 73 490.683594 L 584 490.683594 "/>
<path fill="none" stroke-width="1" stroke-linecap="butt" stroke-linejoin="miter" stroke="rgb(0%, 0%, 0%)" stroke-opacity="0.12" stroke-miterlimit="1.154701" d="M 73 415.535156 L 584 415.535156 "/>
<path fill="none" stroke-width="1" stroke-linecap="butt" stroke-linejoin="miter" stroke="rgb(0%, 0%, 0%)" stroke-opacity="0.12" stroke-miterlimit="1.154701" d="M 73 340.386719 L 584 340.386719 "/>
<path fill="none" stroke-width="1" stroke-linecap="butt" stroke-linejoin="miter" stroke="rgb(0%, 0%, 0%)" stroke-opacity="0.12" stroke-miterlimit="1.154701" d="M 73 265.238281 L 584 265.238281 "/>
<path fill="none" stroke-width="1" stroke-linecap="butt" stroke-linejoin="miter" stroke="rgb(0%, 0%, 0%)" stroke-opacity="0.12" stroke-miterlimit="1.154701" d="M 73 190.09375 L 584 190.09375 "/>
<path fill="none" stroke-width="1" stroke-linecap="butt" stroke-linejoin="miter" stroke="rgb(0%, 0%, 0%)" stroke-opacity="0.12" stroke-miterlimit="1.154701" d="M 73 114.945312 L 584 114.945312 "/>
<path fill="none" stroke-width="1" stroke-linecap="butt" stroke-linejoin="miter" stroke="rgb(0%, 0%, 0%)" stroke-opacity="0.12" stroke-miterlimit="1.154701" d="M 73 39.796875 L 584 39.796875 "/>
<g fill="rgb(0%, 0%, 0%)" fill-opacity="1">
<use xlink:href="#glyph-0-0-89158d3f" x="299.716007" y="581.567999"/>
<use xlink:href="#glyph-0-1-89158d3f" x="309.824007" y="581.567999"/>
<use xlink:href="#glyph-0-2-89158d3f" x="312.932007" y="581.567999"/>
<use xlink:href="#glyph-0-3-89158d3f" x="319.932007" y="581.567999"/>
<use xlink:href="#glyph-0-4-89158d3f" x="323.824007" y="581.567999"/>
<use xlink:href="#glyph-0-5-89158d3f" x="331.608008" y="581.567999"/>
<use xlink:href="#glyph-0-6-89158d3f" x="339.392007" y="581.567999"/>
<use xlink:href="#glyph-0-1-89158d3f" x="346.392007" y="581.567999"/>
<use xlink:href="#glyph-0-7-89158d3f" x="349.500008" y="581.567999"/>
</g>
<g fill="rgb(0%, 0%, 0%)" fill-opacity="1">
<use xlink:href="#glyph-0-8-89158d3f" x="87.750947" y="562.257999"/>
</g>
<g fill="rgb(0%, 0%, 0%)" fill-opacity="1">
<use xlink:href="#glyph-0-9-89158d3f" x="160.264451" y="562.257999"/>
<use xlink:href="#glyph-0-8-89158d3f" x="168.048451" y="562.257999"/>
</g>
<g fill="rgb(0%, 0%, 0%)" fill-opacity="1">
<use xlink:href="#glyph-0-10-89158d3f" x="236.669955" y="562.257999"/>
<use xlink:href="#glyph-0-8-89158d3f" x="244.453955" y="562.257999"/>
</g>
<g fill="rgb(0%, 0%, 0%)" fill-opacity="1">
<use xlink:href="#glyph-0-11-89158d3f" x="313.075444" y="562.257999"/>
<use xlink:href="#glyph-0-8-89158d3f" x="320.859444" y="562.257999"/>
</g>
<g fill="rgb(0%, 0%, 0%)" fill-opacity="1">
<use xlink:href="#glyph-0-12-89158d3f" x="389.480963" y="562.257999"/>
<use xlink:href="#glyph-0-8-89158d3f" x="397.264963" y="562.257999"/>
</g>
<g fill="rgb(0%, 0%, 0%)" fill-opacity="1">
<use xlink:href="#glyph-0-13-89158d3f" x="465.886452" y="562.257999"/>
<use xlink:href="#glyph-0-8-89158d3f" x="473.670452" y="562.257999"/>
</g>
<g fill="rgb(0%, 0%, 0%)" fill-opacity="1">
<use xlink:href="#glyph-0-14-89158d3f" x="542.291941" y="562.257999"/>
<use xlink:href="#glyph-0-8-89158d3f" x="550.075941" y="562.257999"/>
</g>
<g fill="rgb(0%, 0%, 0%)" fill-opacity="1">
<use xlink:href="#glyph-1-0-89158d3f" x="27.922396" y="344.63598"/>
</g>
<g fill="rgb(0%, 0%, 0%)" fill-opacity="1">
<use xlink:href="#glyph-2-0-89158d3f" x="27.922397" y="335.297982"/>
</g>
<g fill="rgb(0%, 0%, 0%)" fill-opacity="1">
<use xlink:href="#glyph-3-0-89158d3f" x="27.922398" y="327.513982"/>
</g>
<g fill="rgb(0%, 0%, 0%)" fill-opacity="1">
<use xlink:href="#glyph-1-1-89158d3f" x="27.922398" y="322.851983"/>
</g>
<g fill="rgb(0%, 0%, 0%)" fill-opacity="1">
<use xlink:href="#glyph-4-0-89158d3f" x="27.922398" y="315.851983"/>
</g>
<g fill="rgb(0%, 0%, 0%)" fill-opacity="1">
<use xlink:href="#glyph-1-2-89158d3f" x="27.922399" y="308.067984"/>
</g>
<g fill="rgb(0%, 0%, 0%)" fill-opacity="1">
<use xlink:href="#glyph-5-0-89158d3f" x="27.922399" y="300.283984"/>
</g>
<g fill="rgb(0%, 0%, 0%)" fill-opacity="1">
<use xlink:href="#glyph-6-0-89158d3f" x="27.922399" y="296.391985"/>
</g>
<g fill="rgb(0%, 0%, 0%)" fill-opacity="1">
<use xlink:href="#glyph-4-1-89158d3f" x="27.9224" y="288.607986"/>
</g>
<g fill="rgb(0%, 0%, 0%)" fill-opacity="1">
<use xlink:href="#glyph-1-3-89158d3f" x="27.9224" y="280.823985"/>
</g>
<g fill="rgb(0%, 0%, 0%)" fill-opacity="1">
<use xlink:href="#glyph-7-0-89158d3f" x="27.922401" y="273.039986"/>
</g>
<g fill="rgb(0%, 0%, 0%)" fill-opacity="1">
<use xlink:href="#glyph-3-1-89158d3f" x="27.922401" y="261.377984"/>
</g>
<g fill="rgb(0%, 0%, 0%)" fill-opacity="1">
<use xlink:href="#glyph-1-4-89158d3f" x="27.922402" y="257.485986"/>
</g>
<g fill="rgb(0%, 0%, 0%)" fill-opacity="1">
<use xlink:href="#glyph-8-0-89158d3f" x="27.922402" y="252.823983"/>
</g>
<g fill="rgb(0%, 0%, 0%)" fill-opacity="1">
<use xlink:href="#glyph-6-1-89158d3f" x="27.922402" y="245.039989"/>
</g>
<g fill="rgb(0%, 0%, 0%)" fill-opacity="1">
<use xlink:href="#glyph-9-0-89158d3f" x="27.922403" y="237.255992"/>
</g>
<g fill="rgb(0%, 0%, 0%)" fill-opacity="1">
<use xlink:href="#glyph-6-2-89158d3f" x="27.922403" y="229.471995"/>
</g>
<g fill="rgb(0%, 0%, 0%)" fill-opacity="1">
<use xlink:href="#glyph-1-5-89158d3f" x="27.922404" y="217.025996"/>
</g>
<g fill="rgb(0%, 0%, 0%)" fill-opacity="1">
<use xlink:href="#glyph-0-9-89158d3f" x="35.9744" y="496.33084"/>
<use xlink:href="#glyph-0-8-89158d3f" x="43.758401" y="496.33084"/>
</g>
<g fill="rgb(0%, 0%, 0%)" fill-opacity="1">
<use xlink:href="#glyph-10-0-89158d3f" x="52.466401" y="490.730839"/>
</g>
<g fill="rgb(0%, 0%, 0%)" fill-opacity="1">
<use xlink:href="#glyph-11-0-89158d3f" x="57.862562" y="490.730839"/>
</g>
<g fill="rgb(0%, 0%, 0%)" fill-opacity="1">
<use xlink:href="#glyph-0-9-89158d3f" x="35.9744" y="421.183606"/>
<use xlink:href="#glyph-0-8-89158d3f" x="43.758401" y="421.183606"/>
</g>
<g fill="rgb(0%, 0%, 0%)" fill-opacity="1">
<use xlink:href="#glyph-10-0-89158d3f" x="52.466401" y="415.583606"/>
</g>
<g fill="rgb(0%, 0%, 0%)" fill-opacity="1">
<use xlink:href="#glyph-11-1-89158d3f" x="57.862562" y="415.583606"/>
</g>
<g fill="rgb(0%, 0%, 0%)" fill-opacity="1">
<use xlink:href="#glyph-0-9-89158d3f" x="35.9744" y="346.036372"/>
<use xlink:href="#glyph-0-8-89158d3f" x="43.758401" y="346.036372"/>
</g>
<g fill="rgb(0%, 0%, 0%)" fill-opacity="1">
<use xlink:href="#glyph-10-0-89158d3f" x="52.466401" y="340.436372"/>
</g>
<g fill="rgb(0%, 0%, 0%)" fill-opacity="1">
<use xlink:href="#glyph-11-2-89158d3f" x="57.862562" y="340.436372"/>
</g>
<g fill="rgb(0%, 0%, 0%)" fill-opacity="1">
<use xlink:href="#glyph-0-9-89158d3f" x="35.9744" y="270.889123"/>
<use xlink:href="#glyph-0-8-89158d3f" x="43.758401" y="270.889123"/>
</g>
<g fill="rgb(0%, 0%, 0%)" fill-opacity="1">
<use xlink:href="#glyph-10-0-89158d3f" x="52.466401" y="265.289123"/>
</g>
<g fill="rgb(0%, 0%, 0%)" fill-opacity="1">
<use xlink:href="#glyph-11-3-89158d3f" x="57.862562" y="265.289123"/>
</g>
<g fill="rgb(0%, 0%, 0%)" fill-opacity="1">
<use xlink:href="#glyph-0-9-89158d3f" x="41.370561" y="195.741873"/>
<use xlink:href="#glyph-0-8-89158d3f" x="49.154561" y="195.741873"/>
</g>
<g fill="rgb(0%, 0%, 0%)" fill-opacity="1">
<use xlink:href="#glyph-11-4-89158d3f" x="57.862562" y="190.141873"/>
</g>
<g fill="rgb(0%, 0%, 0%)" fill-opacity="1">
<use xlink:href="#glyph-0-9-89158d3f" x="41.370561" y="120.594655"/>
<use xlink:href="#glyph-0-8-89158d3f" x="49.154561" y="120.594655"/>
</g>
<g fill="rgb(0%, 0%, 0%)" fill-opacity="1">
<use xlink:href="#glyph-11-3-89158d3f" x="57.862562" y="114.994655"/>
</g>
<g fill="rgb(0%, 0%, 0%)" fill-opacity="1">
<use xlink:href="#glyph-0-9-89158d3f" x="41.370561" y="45.447406"/>
<use xlink:href="#glyph-0-8-89158d3f" x="49.154561" y="45.447406"/>
</g>
<g fill="rgb(0%, 0%, 0%)" fill-opacity="1">
<use xlink:href="#glyph-12-0-89158d3f" x="57.862562" y="39.847406"/>
</g>
<path fill-rule="nonzero" fill="rgb(9.803922%, 9.803922%, 43.921569%)" fill-opacity="0.75" d="M 96.226562 517.136719 L 102.339844 517.136719 L 102.339844 242.609375 L 96.226562 242.609375 Z M 96.226562 517.136719 "/>
<path fill-rule="nonzero" fill="rgb(9.803922%, 9.803922%, 43.921569%)" fill-opacity="0.75" d="M 103.867188 517.136719 L 109.980469 517.136719 L 109.980469 239.167969 L 103.867188 239.167969 Z M 103.867188 517.136719 "/>
<path fill-rule="nonzero" fill="rgb(9.803922%, 9.803922%, 43.921569%)" fill-opacity="0.75" d="M 111.507812 517.136719 L 117.621094 517.136719 L 117.621094 231.238281 L 111.507812 231.238281 Z M 111.507812 517.136719 "/>
<path fill-rule="nonzero" fill="rgb(9.803922%, 9.803922%, 43.921569%)" fill-opacity="0.75" d="M 119.148438 517.136719 L 125.261719 517.136719 L 125.261719 222.585938 L 119.148438 222.585938 Z M 119.148438 517.136719 "/>
<path fill-rule="nonzero" fill="rgb(9.803922%, 9.803922%, 43.921569%)" fill-opacity="0.75" d="M 126.789062 517.136719 L 132.902344 517.136719 L 132.902344 214.6875 L 126.789062 214.6875 Z M 126.789062 517.136719 "/>
<path fill-rule="nonzero" fill="rgb(9.803922%, 9.803922%, 43.921569%)" fill-opacity="0.75" d="M 134.429688 517.136719 L 140.542969 517.136719 L 140.542969 206.496094 L 134.429688 206.496094 Z M 134.429688 517.136719 "/>
<path fill-rule="nonzero" fill="rgb(9.803922%, 9.803922%, 43.921569%)" fill-opacity="0.75" d="M 142.070312 517.136719 L 148.183594 517.136719 L 148.183594 198.242188 L 142.070312 198.242188 Z M 142.070312 517.136719 "/>
<path fill-rule="nonzero" fill="rgb(9.803922%, 9.803922%, 43.921569%)" fill-opacity="0.75" d="M 149.710938 517.136719 L 155.824219 517.136719 L 155.824219 190.003906 L 149.710938 190.003906 Z M 149.710938 517.136719 "/>
<path fill-rule="nonzero" fill="rgb(9.803922%, 9.803922%, 43.921569%)" fill-opacity="0.75" d="M 157.351562 517.136719 L 163.464844 517.136719 L 163.464844 182.050781 L 157.351562 182.050781 Z M 157.351562 517.136719 "/>
<path fill-rule="nonzero" fill="rgb(9.803922%, 9.803922%, 43.921569%)" fill-opacity="0.75" d="M 164.992188 517.136719 L 171.105469 517.136719 L 171.105469 174.417969 L 164.992188 174.417969 Z M 164.992188 517.136719 "/>
<path fill-rule="nonzero" fill="rgb(9.803922%, 9.803922%, 43.921569%)" fill-opacity="0.75" d="M 172.632812 517.136719 L 178.746094 517.136719 L 178.746094 167.003906 L 172.632812 167.003906 Z M 172.632812 517.136719 "/>
<path fill-rule="nonzero" fill="rgb(9.803922%, 9.803922%, 43.921569%)" fill-opacity="0.75" d="M 180.273438 517.136719 L 186.386719 517.136719 L 186.386719 160.136719 L 180.273438 160.136719 Z M 180.273438 517.136719 "/>
<path fill-rule="nonzero" fill="rgb(9.803922%, 9.803922%, 43.921569%)" fill-opacity="0.75" d="M 187.914062 517.136719 L 194.027344 517.136719 L 194.027344 153.632812 L 187.914062 153.632812 Z M 187.914062 517.136719 "/>
<path fill-rule="nonzero" fill="rgb(9.803922%, 9.803922%, 43.921569%)" fill-opacity="0.75" d="M 195.554688 517.136719 L 201.667969 517.136719 L 201.667969 147.769531 L 195.554688 147.769531 Z M 195.554688 517.136719 "/>
<path fill-rule="nonzero" fill="rgb(9.803922%, 9.803922%, 43.921569%)" fill-opacity="0.75" d="M 203.195312 517.136719 L 209.308594 517.136719 L 209.308594 142.785156 L 203.195312 142.785156 Z M 203.195312 517.136719 "/>
<path fill-rule="nonzero" fill="rgb(9.803922%, 9.803922%, 43.921569%)" fill-opacity="0.75" d="M 210.835938 517.136719 L 216.949219 517.136719 L 216.949219 138.59375 L 210.835938 138.59375 Z M 210.835938 517.136719 "/>
<path fill-rule="nonzero" fill="rgb(9.803922%, 9.803922%, 43.921569%)" fill-opacity="0.75" d="M 218.476562 517.136719 L 224.589844 517.136719 L 224.589844 135.246094 L 218.476562 135.246094 Z M 218.476562 517.136719 "/>
<path fill-rule="nonzero" fill="rgb(9.803922%, 9.803922%, 43.921569%)" fill-opacity="0.75" d="M 226.117188 517.136719 L 232.230469 517.136719 L 232.230469 132.847656 L 226.117188 132.847656 Z M 226.117188 517.136719 "/>
<path fill-rule="nonzero" fill="rgb(9.803922%, 9.803922%, 43.921569%)" fill-opacity="0.75" d="M 233.757812 517.136719 L 239.871094 517.136719 L 239.871094 131.507812 L 233.757812 131.507812 Z M 233.757812 517.136719 "/>
<path fill-rule="nonzero" fill="rgb(9.803922%, 9.803922%, 43.921569%)" fill-opacity="0.75" d="M 241.398438 517.136719 L 247.511719 517.136719 L 247.511719 131.304688 L 241.398438 131.304688 Z M 241.398438 517.136719 "/>
<path fill-rule="nonzero" fill="rgb(9.803922%, 9.803922%, 43.921569%)" fill-opacity="0.75" d="M 249.039062 517.136719 L 255.152344 517.136719 L 255.152344 131.761719 L 249.039062 131.761719 Z M 249.039062 517.136719 "/>
<path fill-rule="nonzero" fill="rgb(9.803922%, 9.803922%, 43.921569%)" fill-opacity="0.75" d="M 256.679688 517.136719 L 262.792969 517.136719 L 262.792969 133.179688 L 256.679688 133.179688 Z M 256.679688 517.136719 "/>
<path fill-rule="nonzero" fill="rgb(9.803922%, 9.803922%, 43.921569%)" fill-opacity="0.75" d="M 264.320312 517.136719 L 270.433594 517.136719 L 270.433594 135.449219 L 264.320312 135.449219 Z M 264.320312 517.136719 "/>
<path fill-rule="nonzero" fill="rgb(9.803922%, 9.803922%, 43.921569%)" fill-opacity="0.75" d="M 271.960938 517.136719 L 278.074219 517.136719 L 278.074219 138.589844 L 271.960938 138.589844 Z M 271.960938 517.136719 "/>
<path fill-rule="nonzero" fill="rgb(9.803922%, 9.803922%, 43.921569%)" fill-opacity="0.75" d="M 279.601562 517.136719 L 285.714844 517.136719 L 285.714844 142.316406 L 279.601562 142.316406 Z M 279.601562 517.136719 "/>
<path fill-rule="nonzero" fill="rgb(9.803922%, 9.803922%, 43.921569%)" fill-opacity="0.75" d="M 287.242188 517.136719 L 293.355469 517.136719 L 293.355469 146.980469 L 287.242188 146.980469 Z M 287.242188 517.136719 "/>
<path fill-rule="nonzero" fill="rgb(9.803922%, 9.803922%, 43.921569%)" fill-opacity="0.75" d="M 294.882812 517.136719 L 300.996094 517.136719 L 300.996094 152.066406 L 294.882812 152.066406 Z M 294.882812 517.136719 "/>
<path fill-rule="nonzero" fill="rgb(9.803922%, 9.803922%, 43.921569%)" fill-opacity="0.75" d="M 302.523438 517.136719 L 308.636719 517.136719 L 308.636719 157.621094 L 302.523438 157.621094 Z M 302.523438 517.136719 "/>
<path fill-rule="nonzero" fill="rgb(9.803922%, 9.803922%, 43.921569%)" fill-opacity="0.75" d="M 310.164062 517.136719 L 316.277344 517.136719 L 316.277344 163.605469 L 310.164062 163.605469 Z M 310.164062 517.136719 "/>
<path fill-rule="nonzero" fill="rgb(9.803922%, 9.803922%, 43.921569%)" fill-opacity="0.75" d="M 317.804688 517.136719 L 323.917969 517.136719 L 323.917969 169.480469 L 317.804688 169.480469 Z M 317.804688 517.136719 "/>
<path fill-rule="nonzero" fill="rgb(9.803922%, 9.803922%, 43.921569%)" fill-opacity="0.75" d="M 325.445312 517.136719 L 331.558594 517.136719 L 331.558594 175.230469 L 325.445312 175.230469 Z M 325.445312 517.136719 "/>
<path fill-rule="nonzero" fill="rgb(9.803922%, 9.803922%, 43.921569%)" fill-opacity="0.75" d="M 333.085938 517.136719 L 339.199219 517.136719 L 339.199219 180.941406 L 333.085938 180.941406 Z M 333.085938 517.136719 "/>
<path fill-rule="nonzero" fill="rgb(9.803922%, 9.803922%, 43.921569%)" fill-opacity="0.75" d="M 340.726562 517.136719 L 346.839844 517.136719 L 346.839844 186.664062 L 340.726562 186.664062 Z M 340.726562 517.136719 "/>
<path fill-rule="nonzero" fill="rgb(9.803922%, 9.803922%, 43.921569%)" fill-opacity="0.75" d="M 348.367188 517.136719 L 354.480469 517.136719 L 354.480469 192.570312 L 348.367188 192.570312 Z M 348.367188 517.136719 "/>
<path fill-rule="nonzero" fill="rgb(9.803922%, 9.803922%, 43.921569%)" fill-opacity="0.75" d="M 356.007812 517.136719 L 362.121094 517.136719 L 362.121094 198.472656 L 356.007812 198.472656 Z M 356.007812 517.136719 "/>
<path fill-rule="nonzero" fill="rgb(9.803922%, 9.803922%, 43.921569%)" fill-opacity="0.75" d="M 363.648438 517.136719 L 369.761719 517.136719 L 369.761719 204.214844 L 363.648438 204.214844 Z M 363.648438 517.136719 "/>
<path fill-rule="nonzero" fill="rgb(9.803922%, 9.803922%, 43.921569%)" fill-opacity="0.75" d="M 371.285156 517.136719 L 377.398438 517.136719 L 377.398438 208.859375 L 371.285156 208.859375 Z M 371.285156 517.136719 "/>
<path fill-rule="nonzero" fill="rgb(9.803922%, 9.803922%, 43.921569%)" fill-opacity="0.75" d="M 378.925781 517.136719 L 385.039062 517.136719 L 385.039062 212.945312 L 378.925781 212.945312 Z M 378.925781 517.136719 "/>
<path fill-rule="nonzero" fill="rgb(9.803922%, 9.803922%, 43.921569%)" fill-opacity="0.75" d="M 386.566406 517.136719 L 392.679688 517.136719 L 392.679688 217.164062 L 386.566406 217.164062 Z M 386.566406 517.136719 "/>
<path fill-rule="nonzero" fill="rgb(9.803922%, 9.803922%, 43.921569%)" fill-opacity="0.75" d="M 394.207031 517.136719 L 400.320312 517.136719 L 400.320312 222.15625 L 394.207031 222.15625 Z M 394.207031 517.136719 "/>
<path fill-rule="nonzero" fill="rgb(9.803922%, 9.803922%, 43.921569%)" fill-opacity="0.75" d="M 401.847656 517.136719 L 407.960938 517.136719 L 407.960938 227.808594 L 401.847656 227.808594 Z M 401.847656 517.136719 "/>
<path fill-rule="nonzero" fill="rgb(9.803922%, 9.803922%, 43.921569%)" fill-opacity="0.75" d="M 409.488281 517.136719 L 415.601562 517.136719 L 415.601562 234.324219 L 409.488281 234.324219 Z M 409.488281 517.136719 "/>
<path fill-rule="nonzero" fill="rgb(9.803922%, 9.803922%, 43.921569%)" fill-opacity="0.75" d="M 417.128906 517.136719 L 423.242188 517.136719 L 423.242188 242.960938 L 417.128906 242.960938 Z M 417.128906 517.136719 "/>
<path fill-rule="nonzero" fill="rgb(9.803922%, 9.803922%, 43.921569%)" fill-opacity="0.75" d="M 424.769531 517.136719 L 430.882812 517.136719 L 430.882812 250.941406 L 424.769531 250.941406 Z M 424.769531 517.136719 "/>
<path fill-rule="nonzero" fill="rgb(9.803922%, 9.803922%, 43.921569%)" fill-opacity="0.75" d="M 432.410156 517.136719 L 438.523438 517.136719 L 438.523438 260.398438 L 432.410156 260.398438 Z M 432.410156 517.136719 "/>
<path fill-rule="nonzero" fill="rgb(9.803922%, 9.803922%, 43.921569%)" fill-opacity="0.75" d="M 440.050781 517.136719 L 446.164062 517.136719 L 446.164062 268.976562 L 440.050781 268.976562 Z M 440.050781 517.136719 "/>
<path fill-rule="nonzero" fill="rgb(9.803922%, 9.803922%, 43.921569%)" fill-opacity="0.75" d="M 447.691406 517.136719 L 453.804688 517.136719 L 453.804688 278.582031 L 447.691406 278.582031 Z M 447.691406 517.136719 "/>
<path fill-rule="nonzero" fill="rgb(9.803922%, 9.803922%, 43.921569%)" fill-opacity="0.75" d="M 455.332031 517.136719 L 461.445312 517.136719 L 461.445312 290.683594 L 455.332031 290.683594 Z M 455.332031 517.136719 "/>
<path fill-rule="nonzero" fill="rgb(9.803922%, 9.803922%, 43.921569%)" fill-opacity="0.75" d="M 462.972656 517.136719 L 469.085938 517.136719 L 469.085938 301.300781 L 462.972656 301.300781 Z M 462.972656 517.136719 "/>
<path fill-rule="nonzero" fill="rgb(9.803922%, 9.803922%, 43.921569%)" fill-opacity="0.75" d="M 470.613281 517.136719 L 476.726562 517.136719 L 476.726562 310.328125 L 470.613281 310.328125 Z M 470.613281 517.136719 "/>
<path fill-rule="nonzero" fill="rgb(9.803922%, 9.803922%, 43.921569%)" fill-opacity="0.75" d="M 478.253906 517.136719 L 484.367188 517.136719 L 484.367188 318.453125 L 478.253906 318.453125 Z M 478.253906 517.136719 "/>
<path fill-rule="nonzero" fill="rgb(9.803922%, 9.803922%, 43.921569%)" fill-opacity="0.75" d="M 485.894531 517.136719 L 492.007812 517.136719 L 492.007812 326.425781 L 485.894531 326.425781 Z M 485.894531 517.136719 "/>
<path fill-rule="nonzero" fill="rgb(9.803922%, 9.803922%, 43.921569%)" fill-opacity="0.75" d="M 493.535156 517.136719 L 499.648438 517.136719 L 499.648438 334.792969 L 493.535156 334.792969 Z M 493.535156 517.136719 "/>
<path fill-rule="nonzero" fill="rgb(9.803922%, 9.803922%, 43.921569%)" fill-opacity="0.75" d="M 501.175781 517.136719 L 507.289062 517.136719 L 507.289062 346.238281 L 501.175781 346.238281 Z M 501.175781 517.136719 "/>
<path fill-rule="nonzero" fill="rgb(9.803922%, 9.803922%, 43.921569%)" fill-opacity="0.75" d="M 508.816406 517.136719 L 514.929688 517.136719 L 514.929688 355.976562 L 508.816406 355.976562 Z M 508.816406 517.136719 "/>
<path fill-rule="nonzero" fill="rgb(9.803922%, 9.803922%, 43.921569%)" fill-opacity="0.75" d="M 516.457031 517.136719 L 522.570312 517.136719 L 522.570312 366.355469 L 516.457031 366.355469 Z M 516.457031 517.136719 "/>
<path fill-rule="nonzero" fill="rgb(9.803922%, 9.803922%, 43.921569%)" fill-opacity="0.75" d="M 524.097656 517.136719 L 530.210938 517.136719 L 530.210938 375.585938 L 524.097656 375.585938 Z M 524.097656 517.136719 "/>
<path fill-rule="nonzero" fill="rgb(9.803922%, 9.803922%, 43.921569%)" fill-opacity="0.75" d="M 531.738281 517.136719 L 537.851562 517.136719 L 537.851562 384.339844 L 531.738281 384.339844 Z M 531.738281 517.136719 "/>
<path fill-rule="nonzero" fill="rgb(9.803922%, 9.803922%, 43.921569%)" fill-opacity="0.75" d="M 539.378906 517.136719 L 545.492188 517.136719 L 545.492188 396.339844 L 539.378906 396.339844 Z M 539.378906 517.136719 "/>
<path fill-rule="nonzero" fill="rgb(9.803922%, 9.803922%, 43.921569%)" fill-opacity="0.75" d="M 547.019531 517.136719 L 553.132812 517.136719 L 553.132812 417.007812 L 547.019531 417.007812 Z M 547.019531 517.136719 "/>
<path fill-rule="nonzero" fill="rgb(9.803922%, 9.803922%, 43.921569%)" fill-opacity="0.75" d="M 554.660156 517.136719 L 560.773438 517.136719 L 560.773438 494.515625 L 554.660156 494.515625 Z M 554.660156 517.136719 "/>
<path fill="none" stroke-width="2" stroke-linecap="butt" stroke-linejoin="miter" stroke="rgb(0%, 50.196081%, 0%)" stroke-opacity="1" stroke-dasharray="6 6" stroke-miterlimit="2" d="M 99.285156 39.863281 L 106.925781 39.9375 L 114.566406 40.03125 L 122.207031 40.152344 L 129.84375 40.308594 L 137.484375 40.507812 L 145.125 40.769531 L 152.765625 41.109375 L 160.40625 41.546875 L 168.046875 42.105469 L 175.6875 42.824219 L 183.328125 43.734375 L 190.96875 44.878906 L 198.609375 46.304688 L 206.25 48.046875 L 213.890625 50.148438 L 221.53125 52.648438 L 229.171875 55.574219 L 236.8125 58.925781 L 244.453125 62.6875 L 252.09375 66.875 L 259.734375 71.460938 L 267.375 76.414062 L 275.015625 81.671875 L 282.65625 87.203125 L 290.296875 92.902344 L 297.9375 98.714844 L 305.578125 104.578125 L 313.21875 110.421875 L 320.859375 116.257812 L 328.5 122.109375 L 336.140625 127.988281 L 359.0625 145.71875 L 366.703125 151.667969 L 374.34375 157.882812 L 381.984375 164.558594 L 389.625 171.820312 L 397.265625 179.675781 L 404.90625 188.152344 L 412.546875 197.238281 L 420.1875 206.46875 L 427.828125 216.121094 L 435.46875 225.839844 L 443.109375 235.960938 L 450.75 246.273438 L 458.390625 255.945312 L 466.03125 265.292969 L 473.671875 274.753906 L 481.3125 284.675781 L 488.953125 295.316406 L 496.59375 306.878906 L 504.234375 318.488281 L 511.875 330.933594 L 519.515625 344.382812 L 527.15625 360.21875 L 534.792969 381.40625 L 542.433594 414.105469 L 550.074219 494.515625 "/>
<path fill-rule="nonzero" fill="rgb(100%, 100%, 100%)" fill-opacity="1" stroke-width="1" stroke-linecap="butt" stroke-linejoin="miter" stroke="rgb(0%, 0%, 0%)" stroke-opacity="1" stroke-miterlimit="2" d="M 402 77 L 578 77 L 578 22 L 402 22 Z M 402 77 "/>
<path fill="none" stroke-width="1" stroke-linecap="butt" stroke-linejoin="miter" stroke="rgb(0%, 0%, 0%)" stroke-opacity="1" stroke-miterlimit="1.154701" d="M 91.644531 541.5 L 91.644531 546.5 "/>
<path fill="none" stroke-width="1" stroke-linecap="butt" stroke-linejoin="miter" stroke="rgb(0%, 0%, 0%)" stroke-opacity="1" stroke-miterlimit="1.154701" d="M 168.046875 541.5 L 168.046875 546.5 "/>
<path fill="none" stroke-width="1" stroke-linecap="butt" stroke-linejoin="miter" stroke="rgb(0%, 0%, 0%)" stroke-opacity="1" stroke-miterlimit="1.154701" d="M 244.453125 541.5 L 244.453125 546.5 "/>
<path fill="none" stroke-width="1" stroke-linecap="butt" stroke-linejoin="miter" stroke="rgb(0%, 0%, 0%)" stroke-opacity="1" stroke-miterlimit="1.154701" d="M 320.859375 541.5 L 320.859375 546.5 "/>
<path fill="none" stroke-width="1" stroke-linecap="butt" stroke-linejoin="miter" stroke="rgb(0%, 0%, 0%)" stroke-opacity="1" stroke-miterlimit="1.154701" d="M 397.265625 541.5 L 397.265625 546.5 "/>
<path fill="none" stroke-width="1" stroke-linecap="butt" stroke-linejoin="miter" stroke="rgb(0%, 0%, 0%)" stroke-opacity="1" stroke-miterlimit="1.154701" d="M 473.671875 541.5 L 473.671875 546.5 "/>
<path fill="none" stroke-width="1" stroke-linecap="butt" stroke-linejoin="miter" stroke="rgb(0%, 0%, 0%)" stroke-opacity="1" stroke-miterlimit="1.154701" d="M 550.074219 541.5 L 550.074219 546.5 "/>
<path fill="none" stroke-width="1" stroke-linecap="butt" stroke-linejoin="miter" stroke="rgb(0%, 0%, 0%)" stroke-opacity="1" stroke-miterlimit="1.154701" d="M 72.5 490.683594 L 67.5 490.683594 "/>
<path fill="none" stroke-width="1" stroke-linecap="butt" stroke-linejoin="miter" stroke="rgb(0%, 0%, 0%)" stroke-opacity="1" stroke-miterlimit="1.154701" d="M 72.5 415.535156 L 67.5 415.535156 "/>
<path fill="none" stroke-width="1" stroke-linecap="butt" stroke-linejoin="miter" stroke="rgb(0%, 0%, 0%)" stroke-opacity="1" stroke-miterlimit="1.154701" d="M 72.5 340.386719 L 67.5 340.386719 "/>
<path fill="none" stroke-width="1" stroke-linecap="butt" stroke-linejoin="miter" stroke="rgb(0%, 0%, 0%)" stroke-opacity="1" stroke-miterlimit="1.154701" d="M 72.5 265.238281 L 67.5 265.238281 "/>
<path fill="none" stroke-width="1" stroke-linecap="butt" stroke-linejoin="miter" stroke="rgb(0%, 0%, 0%)" stroke-opacity="1" stroke-miterlimit="1.154701" d="M 72.5 190.09375 L 67.5 190.09375 "/>
<path fill="none" stroke-width="1" stroke-linecap="butt" stroke-linejoin="miter" stroke="rgb(0%, 0%, 0%)" stroke-opacity="1" stroke-miterlimit="1.154701" d="M 72.5 114.945312 L 67.5 114.945312 "/>
<path fill="none" stroke-width="1" stroke-linecap="butt" stroke-linejoin="miter" stroke="rgb(0%, 0%, 0%)" stroke-opacity="1" stroke-miterlimit="1.154701" d="M 72.5 39.796875 L 67.5 39.796875 "/>
<path fill-rule="nonzero" fill="rgb(9.803922%, 9.803922%, 43.921569%)" fill-opacity="0.75" d="M 408.25 48 L 428.25 48 L 428.25 28 L 408.25 28 Z M 408.25 48 "/>
<path fill="none" stroke-width="2" stroke-linecap="butt" stroke-linejoin="miter" stroke="rgb(0%, 50.196081%, 0%)" stroke-opacity="1" stroke-dasharray="6 6" stroke-miterlimit="2" d="M 408.25 61 L 428.25 61 "/>
<g fill="rgb(0%, 0%, 0%)" fill-opacity="1">
<use xlink:href="#glyph-0-15-89158d3f" x="433.249042" y="43.102987"/>
<use xlink:href="#glyph-0-16-89158d3f" x="441.803043" y="43.102987"/>
<use xlink:href="#glyph-0-17-89158d3f" x="446.465041" y="43.102987"/>
<use xlink:href="#glyph-0-18-89158d3f" x="454.249042" y="43.102987"/>
<use xlink:href="#glyph-0-19-89158d3f" x="462.033043" y="43.102987"/>
<use xlink:href="#glyph-0-20-89158d3f" x="469.817043" y="43.102987"/>
<use xlink:href="#glyph-0-5-89158d3f" x="477.601044" y="43.102987"/>
<use xlink:href="#glyph-0-6-89158d3f" x="485.385044" y="43.102987"/>
<use xlink:href="#glyph-0-1-89158d3f" x="492.385045" y="43.102987"/>
<use xlink:href="#glyph-0-7-89158d3f" x="495.493046" y="43.102987"/>
</g>
<g fill="rgb(0%, 0%, 0%)" fill-opacity="1">
<use xlink:href="#glyph-0-15-89158d3f" x="433.249019" y="66.102987"/>
<use xlink:href="#glyph-0-19-89158d3f" x="441.80302" y="66.102987"/>
<use xlink:href="#glyph-0-5-89158d3f" x="449.587017" y="66.102987"/>
<use xlink:href="#glyph-0-21-89158d3f" x="457.371021" y="66.102987"/>
<use xlink:href="#glyph-0-22-89158d3f" x="464.371021" y="66.102987"/>
<use xlink:href="#glyph-0-23-89158d3f" x="472.155018" y="66.102987"/>
<use xlink:href="#glyph-0-24-89158d3f" x="479.939018" y="66.102987"/>
<use xlink:href="#glyph-0-25-89158d3f" x="483.831017" y="66.102987"/>
<use xlink:href="#glyph-0-23-89158d3f" x="493.169018" y="66.102987"/>
<use xlink:href="#glyph-0-26-89158d3f" x="500.953015" y="66.102987"/>
<use xlink:href="#glyph-0-16-89158d3f" x="508.737012" y="66.102987"/>
<use xlink:href="#glyph-0-17-89158d3f" x="513.399015" y="66.102987"/>
<use xlink:href="#glyph-0-27-89158d3f" x="521.183011" y="66.102987"/>
<use xlink:href="#glyph-0-1-89158d3f" x="528.183011" y="66.102987"/>
<use xlink:href="#glyph-0-27-89158d3f" x="531.291013" y="66.102987"/>
<use xlink:href="#glyph-0-20-89158d3f" x="538.291013" y="66.102987"/>
<use xlink:href="#glyph-0-5-89158d3f" x="546.07501" y="66.102987"/>
<use xlink:href="#glyph-0-6-89158d3f" x="553.859007" y="66.102987"/>
<use xlink:href="#glyph-0-1-89158d3f" x="560.859007" y="66.102987"/>
<use xlink:href="#glyph-0-7-89158d3f" x="563.967009" y="66.102987"/>
</g>
<path fill="none" stroke-width="1" stroke-linecap="butt" stroke-linejoin="miter" stroke="rgb(0%, 0%, 0%)" stroke-opacity="1" stroke-miterlimit="1.154701" d="M 72.5 541 L 584.5 541 "/>
<path fill="none" stroke-width="1" stroke-linecap="butt" stroke-linejoin="miter" stroke="rgb(0%, 0%, 0%)" stroke-opacity="1" stroke-miterlimit="1.154701" d="M 73 541.5 L 73 15.5 "/>
<path fill="none" stroke-width="1" stroke-linecap="butt" stroke-linejoin="miter" stroke="rgb(0%, 0%, 0%)" stroke-opacity="1" stroke-miterlimit="1.154701" d="M 72.5 16 L 584.5 16 "/>
<path fill="none" stroke-width="1" stroke-linecap="butt" stroke-linejoin="miter" stroke="rgb(0%, 0%, 0%)" stroke-opacity="1" stroke-miterlimit="1.154701" d="M 584 541.5 L 584 15.5 "/>
</svg>
